<svg xmlns="http://www.w3.org/2000/svg" xmlns:xlink="http://www.w3.org/1999/xlink" width="201.626" height="152.894" viewBox="0 0 201.626 152.894">
  <defs>
    <linearGradient id="linear-gradient" x1="0.5" y1="1" x2="0.5" gradientUnits="objectBoundingBox">
      <stop offset="0" stop-color="gray" stop-opacity="0.251"/>
      <stop offset="0.54" stop-color="gray" stop-opacity="0.122"/>
      <stop offset="1" stop-color="gray" stop-opacity="0.102"/>
    </linearGradient>
    <linearGradient id="linear-gradient-2" x1="0.5" y1="1.009" x2="0.5" y2="-0.002" xlink:href="#linear-gradient"/>
  </defs>
  <g id="Group_9278" data-name="Group 9278" transform="translate(0 -0.003)">
    <path id="Path_5205" data-name="Path 5205" d="M97.294,47s-.7,2.734,4.2,10.461,4.557,8.821,4.274,11.031-.266,3.419-3.111,6.132c0,0-8.524,2.8-9.663,4.544s1.882,8.089,1.882,8.089,2.9,7.706-7.521,10.663c0,0-8.156.011-10.418,1.808,0,0,.875-3.128-1.845-7.727s1.028-9.083,1.028-9.083a16.152,16.152,0,0,1,4.934-1.79c1.916-.128,2.524-1.005,1.292-3.207,0,0-1.782-.929-4.25,1.061s-4.311,3.408-6.461,3.241A8.481,8.481,0,0,1,64.4,77.17c-2.013-3.979-3.072-9.6-4.579-12.172A10.825,10.825,0,0,0,57.5,61.867s1.9,1.446,8.481-3.462S75.99,55.6,75.99,55.6s5.285,1.42,6.132,10.739c0,0,1.537,8.881,4.661,3.5,0,0-1.057-3.029-3.17-7.489S87.155,53.69,91.3,52.285A11.263,11.263,0,0,0,97.294,47Z" transform="translate(-57.5 -45.44)" fill="#253240"/>
    <path id="Path_5206" data-name="Path 5206" d="M88.409,137.124l-.019-.046c1.3-.543,7.3,2.708,12.1,5.53l-.026.043C93.7,138.67,89.414,136.708,88.409,137.124Z" transform="translate(-82.65 -118.73)" fill="#444053"/>
    <path id="Path_5207" data-name="Path 5207" d="M152.83,166.878l.052-.028c3.832,2.258,8.429,5.123,11.873,7.45.327.221.667.44,1.015.647l-.054.087c-.348-.208-.689-.427-1.018-.65C161.258,172.059,156.66,169.134,152.83,166.878Z" transform="translate(-135.115 -143.018)" fill="#444053"/>
    <path id="Path_5208" data-name="Path 5208" d="M221.63,210.3l.085-.067c6.907,4.146,16.625,3.159,16.71,3.159l-1.072,1.217C237.268,214.612,228.586,214.471,221.63,210.3Z" transform="translate(-191.129 -178.337)" fill="#444053"/>
    <path id="Path_5209" data-name="Path 5209" d="M191.276,80.61s-2.262,6.3-.543,10.736-1.858,15.433-1.858,15.433-1.187,4.625-3.1,5.781c0,0-2.771,3.44-4.395,3.834s-5.359,3.884-5.261,5.815" transform="translate(-154.076 -72.804)" fill="none" stroke="#444053" stroke-miterlimit="10" stroke-width="1"/>
    <path id="Path_5210" data-name="Path 5210" d="M256.758,83s-1.594,3.233-3.968,3.206" transform="translate(-216.499 -74.75)" fill="none" stroke="#444053" stroke-miterlimit="10" stroke-width="1"/>
    <path id="Path_5211" data-name="Path 5211" d="M260.939,105.62s-.964,4.447-6.939,5.69" transform="translate(-217.484 -93.167)" fill="none" stroke="#444053" stroke-miterlimit="10" stroke-width="1"/>
    <path id="Path_5212" data-name="Path 5212" d="M265.87,141.28a9.577,9.577,0,0,1-8.87,3.956" transform="translate(-219.926 -122.2)" fill="none" stroke="#444053" stroke-miterlimit="10" stroke-width="1"/>
    <path id="Path_5213" data-name="Path 5213" d="M261.192,186.69s-5.291,3.466-9.292,1.563" transform="translate(-215.774 -159.171)" fill="none" stroke="#444053" stroke-miterlimit="10" stroke-width="1"/>
    <path id="Path_5214" data-name="Path 5214" d="M237.56,83s1.383,2.925,2.912,2.044" transform="translate(-204.099 -74.75)" fill="none" stroke="#444053" stroke-miterlimit="10" stroke-width="1"/>
    <path id="Path_5215" data-name="Path 5215" d="M210.32,106.91s1.858,3.925,7.673,3.235" transform="translate(-181.921 -94.217)" fill="none" stroke="#444053" stroke-miterlimit="10" stroke-width="1"/>
    <path id="Path_5216" data-name="Path 5216" d="M207.3,138.67s5.114,3.107,9.262,2.265" transform="translate(-179.462 -120.075)" fill="none" stroke="#444053" stroke-miterlimit="10" stroke-width="1"/>
    <path id="Path_5217" data-name="Path 5217" d="M221.79,172.52s4.047,3.228,5.947,2.486" transform="translate(-191.26 -147.635)" fill="none" stroke="#444053" stroke-miterlimit="10" stroke-width="1"/>
    <path id="Path_5218" data-name="Path 5218" d="M216.69,185.47s1.095,3.391.019,4.033" transform="translate(-187.107 -158.178)" fill="none" stroke="#444053" stroke-miterlimit="10" stroke-width="1"/>
    <path id="Path_5219" data-name="Path 5219" d="M197.4,202.093s2.087-2.072,1.505-2.453" transform="translate(-171.402 -169.715)" fill="none" stroke="#444053" stroke-miterlimit="10" stroke-width="1"/>
    <path id="Path_5220" data-name="Path 5220" d="M174.376,120.22s1.827,8.677-.546,11.018" transform="translate(-152.212 -105.054)" fill="none" stroke="#444053" stroke-miterlimit="10" stroke-width="1"/>
    <path id="Path_5221" data-name="Path 5221" d="M135.67,194.306s8.268-5.309,8.989-8.446" transform="translate(-121.143 -158.496)" fill="none" stroke="#444053" stroke-miterlimit="10" stroke-width="1"/>
    <path id="Path_5222" data-name="Path 5222" d="M109.9,180.069s7.777-3.626,9.886-7.1" transform="translate(-100.162 -148.001)" fill="none" stroke="#444053" stroke-miterlimit="10" stroke-width="1"/>
    <path id="Path_5223" data-name="Path 5223" d="M138,105.26s3.763,6.277,1.412,10.67" transform="translate(-123.04 -92.874)" fill="none" stroke="#444053" stroke-miterlimit="10" stroke-width="0.75"/>
    <path id="Path_5224" data-name="Path 5224" d="M96.25,160.429s5.761-2.332,6.926-4.579" transform="translate(-89.049 -134.062)" fill="none" stroke="#444053" stroke-miterlimit="10" stroke-width="0.75"/>
    <path id="Path_5225" data-name="Path 5225" d="M102.79,115.56s1.927,3.553,1.03,5.1" transform="translate(-94.374 -101.26)" fill="none" stroke="#444053" stroke-miterlimit="10" stroke-width="0.75"/>
    <path id="Path_5226" data-name="Path 5226" d="M210.23,227.9s5.2-.7,5.761.662" transform="translate(-181.848 -192.575)" fill="none" stroke="#444053" stroke-miterlimit="10" stroke-width="1"/>
    <path id="Path_5227" data-name="Path 5227" d="M239.531,251.49s-.281-5.69-3.531-7.89" transform="translate(-202.829 -205.506)" fill="none" stroke="#444053" stroke-miterlimit="10" stroke-width="1"/>
    <path id="Path_5228" data-name="Path 5228" d="M178.22,241s5.462.645,7.392,4.207" transform="translate(-155.786 -203.389)" fill="none" stroke="#444053" stroke-miterlimit="10" stroke-width="1"/>
    <path id="Path_5229" data-name="Path 5229" d="M213.726,277.1a7.433,7.433,0,0,0-3.146-7.116" transform="translate(-182.133 -226.983)" fill="none" stroke="#444053" stroke-miterlimit="10" stroke-width="1"/>
    <path id="Path_5230" data-name="Path 5230" d="M157.05,268.068s4.531-.232,6.958,1.922" transform="translate(-138.55 -225.421)" fill="none" stroke="#444053" stroke-miterlimit="10" stroke-width="1"/>
    <path id="Path_5231" data-name="Path 5231" d="M183.616,295.2s-.424-3.308-1.606-3.934" transform="translate(-158.872 -244.317)" fill="none" stroke="#444053" stroke-miterlimit="10" stroke-width="1"/>
    <path id="Path_5232" data-name="Path 5232" d="M198.96,75.3c-10.2,5.131-21.348,7.368-32.221,9.093s-21.848,3.053-32.563,6.658c-6.891,2.319-14.173,6.075-17.57,11.91-3.274,5.6-2.065,11.577-.333,16.784,1.3,3.915,2.973,7.877,6.534,10.271,2.475,1.661,5.688,2.44,8.387,3.854,9.386,4.915,10.908,16.444,9.4,27.05-.71,4.975-1.929,10.015-1.912,14.891s1.423,9.708,5.293,12.588c3.836,2.854,9.595,3.434,15.238,2.973,11.468-.929,23-5.685,33.981-10.8,24.318-11.312,47.612-24.8,70.852-38.25,8.6-4.978,17.232-9.981,25.147-15.878,4.395-3.274,8.734-7.036,10.763-11.536,2.585-5.712.613-11.936-4.6-14.506-8.734-4.311-23.337,1.373-30.869-4.257-4.161-3.1-4.7-8.771-4.025-14.1,1.453-11.44,7.459-24.049,2.875-33.729-3.148-6.649-11.432-10.518-20.479-9.561-9.477,1-19.981,7.234-22.805,15.634C217.147,63.052,207.963,70.762,198.96,75.3Z" transform="translate(-103.946 -38.62)" fill="#253240" opacity="0.1"/>
    <ellipse id="Ellipse_868" data-name="Ellipse 868" cx="18.604" cy="4.596" rx="18.604" ry="4.596" transform="translate(100.857 136.885)" fill="#253240" opacity="0.1"/>
    <rect id="Rectangle_6082" data-name="Rectangle 6082" width="176.602" height="100.039" rx="12.49" transform="translate(25.024 25.222)" fill="url(#linear-gradient)"/>
    <rect id="Rectangle_6083" data-name="Rectangle 6083" width="176.061" height="98.3" rx="12.49" transform="translate(25.305 26.628)" fill="#fff"/>
    <rect id="Rectangle_6084" data-name="Rectangle 6084" width="176.061" height="98.3" rx="12.49" transform="translate(25.305 26.628)" fill="#fff"/>
    <rect id="Rectangle_6085" data-name="Rectangle 6085" width="176.061" height="98.3" rx="12.49" transform="translate(25.305 26.628)" fill="#5a5773" opacity="0.04"/>
    <path id="Path_5233" data-name="Path 5233" d="M368.848,175.83H194.574a.894.894,0,0,0-.894.894v3.784H369.741v-3.784A.894.894,0,0,0,368.848,175.83Z" transform="translate(-168.373 -150.33)" fill="#5a5773"/>
    <g id="buttons" transform="translate(27.613 26.628)">
      <circle id="Ellipse_869" data-name="Ellipse 869" cx="1.208" cy="1.208" r="1.208" fill="#fff"/>
      <circle id="Ellipse_870" data-name="Ellipse 870" cx="1.208" cy="1.208" r="1.208" transform="translate(3.252)" fill="#fff"/>
      <circle id="Ellipse_871" data-name="Ellipse 871" cx="1.208" cy="1.208" r="1.208" transform="translate(6.504)" fill="#fff"/>
    </g>
    <rect id="Rectangle_6086" data-name="Rectangle 6086" width="146.808" height="56.493" rx="10.19" transform="translate(37.09 51.937)" fill="#253240" opacity="0.1"/>
    <rect id="Rectangle_6087" data-name="Rectangle 6087" width="146.808" height="56.493" rx="10.19" transform="matrix(1, 0.025, -0.025, 1, 40.67, 46.415)" fill="#fff"/>
    <line id="Line_547" data-name="Line 547" x2="102.267" y2="2.6" transform="translate(62.629 58.402)" fill="#f4f4f7" stroke="#5a5773" stroke-miterlimit="10" stroke-width="1" opacity="0.2"/>
    <line id="Line_548" data-name="Line 548" x2="102.267" y2="2.6" transform="translate(62.427 66.391)" fill="#f4f4f7" stroke="#5a5773" stroke-miterlimit="10" stroke-width="1" opacity="0.2"/>
    <line id="Line_549" data-name="Line 549" x2="102.267" y2="2.6" transform="translate(62.224 74.378)" fill="#f4f4f7" stroke="#5a5773" stroke-miterlimit="10" stroke-width="1" opacity="0.2"/>
    <line id="Line_550" data-name="Line 550" x2="102.269" y2="2.6" transform="translate(62.02 82.367)" fill="#f4f4f7" stroke="#5a5773" stroke-miterlimit="10" stroke-width="1" opacity="0.2"/>
    <line id="Line_551" data-name="Line 551" x1="0.258" y2="10.156" transform="translate(71.057 80.434)" fill="none" stroke="#5a5773" stroke-miterlimit="10" stroke-width="1" stroke-dasharray="12" opacity="0.2"/>
    <line id="Line_552" data-name="Line 552" x2="102.267" y2="2.598" transform="translate(61.817 90.356)" fill="#f4f4f7" stroke="#5a5773" stroke-miterlimit="10" stroke-width="1" opacity="0.2"/>
    <line id="Line_553" data-name="Line 553" y1="15.14" x2="0.385" transform="translate(82.623 75.744)" fill="none" stroke="#5a5773" stroke-miterlimit="10" stroke-width="1" stroke-dasharray="12" opacity="0.2"/>
    <path id="Path_5234" data-name="Path 5234" d="M519.072,383.493a6.322,6.322,0,0,1-4.694-1.938,18.381,18.381,0,0,1-2.741-3.821c-.251-.422-.511-.857-.773-1.277a13.836,13.836,0,0,0-4.337-4.633,8.256,8.256,0,0,0-1.845-.844,1.3,1.3,0,0,1-1.173.8h-.061a1.3,1.3,0,0,1-1.254-1.128,5.657,5.657,0,0,0-1.712.351,10.456,10.456,0,0,0-3.975,3.22c-1.357,1.565-2.665,3.206-3.884,4.88q-.372.507-.743,1.02a27.859,27.859,0,0,1-4.46,5.248,9.028,9.028,0,0,1-7.641,2.323c-2.892-.671-4.96-3.226-6.437-5.378-.186-.279-.372-.557-.572-.842-1.379-2.044-2.8-4.157-4.908-5.389a8.308,8.308,0,0,0-9.106.663,16.4,16.4,0,0,0-3.031,3.6c-.3.442-.621.9-.946,1.338-1.672,2.247-3.358,3.466-5.175,3.73a9.838,9.838,0,0,1-2.169,0c-.479-.033-.976-.071-1.461-.058a7.023,7.023,0,0,0-5.867,3.655l-.256,10.7,80.337,2.044.45-17.7a1.115,1.115,0,0,1-1.565-.557Z" transform="translate(-368.797 -308.946)" fill="#253240" opacity="0.2"/>
    <line id="Line_554" data-name="Line 554" x1="0.637" y2="25.106" transform="translate(94.499 66.081)" fill="none" stroke="#5a5773" stroke-miterlimit="10" stroke-width="1" stroke-dasharray="12" opacity="0.2"/>
    <line id="Line_555" data-name="Line 555" x1="0.401" y2="15.79" transform="translate(105.939 75.686)" fill="none" stroke="#5a5773" stroke-miterlimit="10" stroke-width="1" stroke-dasharray="12" opacity="0.2"/>
    <line id="Line_556" data-name="Line 556" x1="0.361" y2="14.222" transform="translate(117.123 77.539)" fill="none" stroke="#5a5773" stroke-miterlimit="10" stroke-width="1" stroke-dasharray="12" opacity="0.2"/>
    <line id="Line_557" data-name="Line 557" x1="0.691" y2="27.215" transform="translate(127.606 64.811)" fill="none" stroke="#5a5773" stroke-miterlimit="10" stroke-width="1" stroke-dasharray="12" opacity="0.2"/>
    <line id="Line_558" data-name="Line 558" x1="0.723" y2="28.445" transform="translate(138.579 63.862)" fill="none" stroke="#5a5773" stroke-miterlimit="10" stroke-width="1" stroke-dasharray="12" opacity="0.2"/>
    <line id="Line_559" data-name="Line 559" x1="0.461" y2="18.067" transform="translate(151.03 74.557)" fill="none" stroke="#5a5773" stroke-miterlimit="10" stroke-width="1" stroke-dasharray="12" opacity="0.2"/>
    <path id="Path_5235" data-name="Path 5235" d="M778.455,364.091a1.3,1.3,0,0,0-2.191.74,1.268,1.268,0,0,0-.015.223.659.659,0,0,0,.011.149,1.3,1.3,0,0,0,.388.764,1.277,1.277,0,0,0,.866.372h.061a1.3,1.3,0,0,0,.912-.4,1.332,1.332,0,0,0,.262-.4,1.283,1.283,0,0,0,.093-.362,1.029,1.029,0,0,0,0-.169A1.3,1.3,0,0,0,778.455,364.091Zm-.065,1.338a.843.843,0,0,1-.169.243.929.929,0,0,1-1.581-.479.777.777,0,0,1-.017-.147.893.893,0,0,1,.022-.223.929.929,0,0,1,.888-.725h.043a.929.929,0,0,1,.9.909v.058A.864.864,0,0,1,778.389,365.429Z" transform="translate(-642.682 -303.31)" fill="#253240"/>
    <circle id="Ellipse_872" data-name="Ellipse 872" cx="1.115" cy="1.115" r="1.115" transform="translate(150.387 73.198)" fill="#253240"/>
    <path id="Path_5236" data-name="Path 5236" d="M502.111,369.862a.769.769,0,0,0,.017.147c-.126,0-.253,0-.372.009a5.683,5.683,0,0,0-1.713.351,10.475,10.475,0,0,0-3.977,3.22c-1.357,1.563-2.665,3.206-3.886,4.878-.247.338-.491.68-.743,1.022a28.055,28.055,0,0,1-4.46,5.248,9.043,9.043,0,0,1-7.647,2.321c-2.888-.669-4.956-3.226-6.443-5.378-.186-.277-.383-.557-.572-.842-1.381-2.044-2.808-4.157-4.912-5.389a8.307,8.307,0,0,0-9.106.663,16.787,16.787,0,0,0-3.025,3.594c-.307.442-.623.9-.948,1.338-1.673,2.247-3.36,3.466-5.177,3.73a9.954,9.954,0,0,1-2.169,0,14.214,14.214,0,0,0-1.462-.058,7.01,7.01,0,0,0-6.093,4.111l-.342-.149a7.4,7.4,0,0,1,6.424-4.334,13.864,13.864,0,0,1,1.5.059,9.673,9.673,0,0,0,2.087,0c1.715-.247,3.328-1.42,4.932-3.583.321-.433.636-.888.94-1.329a16.9,16.9,0,0,1,3.105-3.674,8.569,8.569,0,0,1,9.526-.693c2.178,1.277,3.629,3.425,5.034,5.5.186.279.372.557.571.838,1.44,2.1,3.447,4.584,6.218,5.226a8.669,8.669,0,0,0,7.322-2.243,27.627,27.627,0,0,0,4.395-5.181q.365-.513.743-1.024c1.228-1.673,2.542-3.33,3.9-4.9a10.721,10.721,0,0,1,4.127-3.323,6.087,6.087,0,0,1,1.847-.372c.124,0,.253-.011.372,0A.892.892,0,0,0,502.111,369.862Z" transform="translate(-368.17 -308.126)" fill="#253240"/>
    <path id="Path_5237" data-name="Path 5237" d="M803.588,383.661c-2.18.814-4.484-.4-5.8-1.691a18.391,18.391,0,0,1-2.741-3.823c-.251-.42-.511-.857-.775-1.275a13.811,13.811,0,0,0-4.339-4.635,8.285,8.285,0,0,0-1.845-.842c-.119-.039-.24-.073-.372-.1a.865.865,0,0,0,.091-.362c.123.032.243.067.372.1a8.613,8.613,0,0,1,1.946.888,14.129,14.129,0,0,1,4.46,4.752c.266.424.526.86.781,1.286a18.026,18.026,0,0,0,2.682,3.745c1.232,1.212,3.39,2.362,5.406,1.609Z" transform="translate(-652.021 -309.174)" fill="#253240"/>
    <rect id="Rectangle_6088" data-name="Rectangle 6088" width="3.791" height="1.672" rx="0.836" transform="matrix(1, 0.025, -0.025, 1, 62.669, 56.736)" fill="#253240" opacity="0.5"/>
    <rect id="Rectangle_6089" data-name="Rectangle 6089" width="3.791" height="1.672" rx="0.836" transform="matrix(1, 0.025, -0.025, 1, 62.464, 64.723)" fill="#253240"/>
    <rect id="Rectangle_6090" data-name="Rectangle 6090" width="3.791" height="1.672" rx="0.836" transform="matrix(1, 0.025, -0.025, 1, 62.26, 72.713)" fill="#253240" opacity="0.5"/>
    <rect id="Rectangle_6091" data-name="Rectangle 6091" width="3.791" height="1.672" rx="0.836" transform="matrix(1, 0.025, -0.025, 1, 62.057, 80.7)" fill="#253240" opacity="0.5"/>
    <rect id="Rectangle_6092" data-name="Rectangle 6092" width="3.791" height="1.672" rx="0.836" transform="matrix(1, 0.025, -0.025, 1, 61.853, 88.689)" fill="#253240" opacity="0.5"/>
    <rect id="Rectangle_6093" data-name="Rectangle 6093" width="3.791" height="1.672" rx="0.836" transform="matrix(1, 0.025, -0.025, 1, 68.884, 92.214)" fill="#253240" opacity="0.5"/>
    <rect id="Rectangle_6094" data-name="Rectangle 6094" width="3.791" height="1.672" rx="0.836" transform="matrix(1, 0.025, -0.025, 1, 80.681, 92.514)" fill="#253240" opacity="0.5"/>
    <rect id="Rectangle_6095" data-name="Rectangle 6095" width="3.791" height="1.672" rx="0.836" transform="translate(92.136 93.315) rotate(1.718)" fill="#253240"/>
    <rect id="Rectangle_6096" data-name="Rectangle 6096" width="3.791" height="1.672" rx="0.836" transform="matrix(1, 0.025, -0.025, 1, 103.997, 93.108)" fill="#253240" opacity="0.5"/>
    <rect id="Rectangle_6097" data-name="Rectangle 6097" width="3.791" height="1.672" rx="0.836" transform="matrix(1, 0.025, -0.025, 1, 115.179, 93.395)" fill="#253240" opacity="0.5"/>
    <rect id="Rectangle_6098" data-name="Rectangle 6098" width="3.791" height="1.672" rx="0.836" transform="matrix(1, 0.025, -0.025, 1, 125.661, 93.66)" fill="#253240"/>
    <rect id="Rectangle_6099" data-name="Rectangle 6099" width="3.791" height="1.672" rx="0.836" transform="matrix(1, 0.025, -0.025, 1, 136.713, 93.941)" fill="#253240"/>
    <rect id="Rectangle_6100" data-name="Rectangle 6100" width="3.791" height="1.672" rx="0.836" transform="translate(148.681 95.013) rotate(1.718)" fill="#253240"/>
    <path id="Path_5238" data-name="Path 5238" d="M1029.048,642.856a1.84,1.84,0,1,1-1.3.539,1.84,1.84,0,0,1,1.3-.539m0-.286a2.128,2.128,0,1,0,2.128,2.124A2.128,2.128,0,0,0,1029.048,642.57Z" transform="translate(-846.77 -530.334)" fill="#253240"/>
    <path id="Path_5239" data-name="Path 5239" d="M1035.3,651.583l.111-.149a.591.591,0,0,0,.407.169c.186,0,.333-.095.333-.245s-.136-.271-.511-.271v-.171c.334,0,.461-.111.461-.256s-.114-.214-.279-.214a.544.544,0,0,0-.351.143l-.119-.143a.744.744,0,0,1,.479-.186c.288,0,.5.139.5.383,0,.171-.125.284-.307.346V651a.4.4,0,0,1,.357.372c0,.264-.249.424-.546.424A.719.719,0,0,1,1035.3,651.583Z" transform="translate(-853.593 -536.595)" fill="#253240"/>
    <path id="Path_5240" data-name="Path 5240" d="M1076.338,643.526a1.84,1.84,0,1,1-1.3.539,1.84,1.84,0,0,1,1.3-.539m0-.286a2.126,2.126,0,1,0,1.505.623A2.128,2.128,0,0,0,1076.338,643.24Z" transform="translate(-885.272 -530.88)" fill="#5a5773"/>
    <path id="Path_5241" data-name="Path 5241" d="M1082.325,651.186a2.286,2.286,0,0,1,.013-.3h-.013c-.052.08-.112.16-.164.24l-.372.485h1.005v.2h-1.266v-.156l.754-.992h.277v1.58h-.23Z" transform="translate(-891.232 -536.921)" fill="#5a5773"/>
    <path id="Path_5242" data-name="Path 5242" d="M1059.3,647.906a.2.2,0,0,1,.273,0l.959.963a.186.186,0,0,1,0,.268l-.944.948a.194.194,0,1,1-.275-.273l.81-.818-.823-.814a.186.186,0,0,1,0-.275Z" transform="translate(-873.086 -534.633)" fill="#5a5773"/>
    <path id="Path_5243" data-name="Path 5243" d="M1050.77,644.857a2.091,2.091,0,1,0,2.087-2.087A2.091,2.091,0,0,0,1050.77,644.857Zm.321,0a1.771,1.771,0,1,1,.519,1.249A1.751,1.751,0,0,1,1051.091,644.857Z" transform="translate(-866.188 -530.497)" fill="#5a5773"/>
    <rect id="Rectangle_6101" data-name="Rectangle 6101" width="42.229" height="4.432" rx="2.216" transform="translate(30.865 35.134)" fill="#5a5773" opacity="0.2"/>
    <path id="Path_5244" data-name="Path 5244" d="M545,379.019c-.308-1.115-.509-2.1-.509-2.1a4.374,4.374,0,0,0-.572-2.128l-.011-.307h0l-.087-2.267a7.719,7.719,0,0,1,.526-1.21c.383-.728-.126-3.323-.126-3.323s-1.656-3.622-1.377-5.971-3.5-10.249-3.5-10.249a10.13,10.13,0,0,1,.238-2.306,1.888,1.888,0,0,0,.026-.483v-.041a17.8,17.8,0,0,0-1.438-4.376l-.048-5.506a16.166,16.166,0,0,0-.784-7.578c-.5-1.5-.831-2.706-1.046-3.639-.024-.1-.048-.206-.069-.3,2.6-.5,4.573-.907,4.573-.907s-1.756-6.272-2.821-7.34-2.016-4.518-2.016-4.518-.7-4.451.1-5.79a8.719,8.719,0,0,0,.846-3.6s1.907-1.5,2.128-2.143a10.514,10.514,0,0,0,.546-2.836c-.028-.753-.3-1.414-.234-1.814s-.645-1.877-.346-2.6a1.964,1.964,0,0,0,.1-.691v-.03a9.651,9.651,0,0,0-.243-1.849,5.251,5.251,0,0,0-1.981-.964l-.05-.167-.13-.448c-.067-.041-.132-.076-.2-.108l-.011-.162-.043-.641.251-1.449c.505-2.537-2.86-2.787-2.86-2.787a1.756,1.756,0,0,0-.983-.8c-.684-.212.033,3.784.359,4.027a15.35,15.35,0,0,1,1.4,2.022h0l.06.1a1.762,1.762,0,0,0-.147.167l.162.868.024.132a3.664,3.664,0,0,0-.5.929,1.955,1.955,0,0,1,.546,1.407,4.369,4.369,0,0,0,.269,1.732c-.037-.041-.487-.491-.912-.361s-1.617.537-1.617.537-.894.186-.8.388-.572,1.093-.572,1.093l-2.505-2.2c-.026-.067-.054-.134-.078-.2a5.638,5.638,0,0,1-.249-.994,5.689,5.689,0,0,0,.764-.277,1.673,1.673,0,0,0,.652-.453,2.615,2.615,0,0,0,.349-1.057,15.658,15.658,0,0,1,.82-2.033,6.517,6.517,0,0,0,.342-3.6,2.383,2.383,0,0,0-.411-1.037c-.416-.528-1.139-.721-1.672-1.134s-.9-1.061-1.518-1.364a2.9,2.9,0,0,0-1.84-.085,9.868,9.868,0,0,0-3.39,1.373,1.758,1.758,0,0,1-1.13.42,1.532,1.532,0,0,1-.849-.574.046.046,0,0,1,.009-.033l-.028-.032a4.258,4.258,0,0,0-.3,1.823,1.9,1.9,0,0,0,.022.29.368.368,0,0,0,.009.1.638.638,0,0,1,0,.084h0a.5.5,0,0,1-.013.128.94.94,0,0,1-.214.336,1.935,1.935,0,0,0-.186.275.316.316,0,0,1,.03-.1,1.427,1.427,0,0,0-.221.771.756.756,0,0,0,.2.537,2.626,2.626,0,0,0,.407.3,4.493,4.493,0,0,0-.041.808,4.668,4.668,0,0,0,2.431,3.9l.089.2a5.8,5.8,0,0,1,.541,2.618,1.15,1.15,0,0,1-.022.186c-.03.033-.058.069-.084.1h0s-3.99.186-4.962-.623-2.291,2.169-2.291,2.169-1.42.333-1.715.067-1.964.035-1.964.035a3.614,3.614,0,0,0-2.529-.814,7.367,7.367,0,0,0-1.868-.948h0l-.045-.015h0a2.054,2.054,0,0,0-.9-.08,18.342,18.342,0,0,1-2.63-2.4c-.606-.849-3.456-3.973-3.469-3.986l-.013-.158-.048-.468a1.907,1.907,0,0,1-.243.03q-.024-.069-.061-.162a8.957,8.957,0,0,0-.63-1.3s-.022-.595.145-.743a10.216,10.216,0,0,0-.162-2.323s-1.927-4.066-3.393-.918c0,0-2.918,2.113-.314,4.341,0,0,1.022.446,1.178.825.1.247.47.929.717,1.386l.11.2-.028.024.052.387.02.151c-.463.288-.773.567-.688.764a4.446,4.446,0,0,1,.327,1.057s3.642,4.22,4.164,6.062c0,0,9.533,5.181,12.614,5.46l-.424,2.787a22.529,22.529,0,0,0-.037,2.26c.063.587-.242,3.3-.242,3.3s-.372,3.979-.807,4.549-.256,2.942-.256,2.942a19.928,19.928,0,0,1-.483,3.388,8.625,8.625,0,0,0,0,3.367s-1.416,3.622,2.21,1.065c0,0,1.823-.186,3.923-.336v.21c0,.271.011.557.02.873.05,2.044.147,4.852.32,6.974.308,3.752,1.739,11.15,1.739,11.15l.143,3.737a5.083,5.083,0,0,0-.065,1.072,6.942,6.942,0,0,0,1.15,3.7l.383,2.483a9.373,9.373,0,0,1,.784,2.6,1.359,1.359,0,0,1-.019.24,1.714,1.714,0,0,0-.019.383,21.016,21.016,0,0,0,.792,3.815s.147,2.728.557,2.871c.355.123-.407,1.591-.634,2.014a.4.4,0,0,0-.019-.078l-.047.084a1.918,1.918,0,0,0-.1.7.994.994,0,0,0,.491.942c.8.446,1.228.825.574,1.009a7.126,7.126,0,0,0-.714.186l-.037-.089a.435.435,0,0,0-.236.468,2.01,2.01,0,0,0,.279.916,9.851,9.851,0,0,0,1.186,1.975l.312-.048a1.565,1.565,0,0,1-.169.346,1.3,1.3,0,0,1-.446.427,1.424,1.424,0,0,1-.557.214,1.574,1.574,0,0,0-1.137.608,1.205,1.205,0,0,0,.216,1.871l2.962.9s5.053.461,4.742-.658-.509-2.1-.509-2.1a4.484,4.484,0,0,0-.485-1.985,2.267,2.267,0,0,0-.186-.288l.177-.028s.273-2.507.743-3c.108-.115.13-.2.1-.264.045-.138-.086-.212-.253-.251-.011.033-.022.065-.032.1a2.351,2.351,0,0,0-.478-.033s-.214-1.3.3-1.8a.5.5,0,0,0,.087-.392,2.116,2.116,0,0,0-.074-.53s-.011.02-.019.032a19.349,19.349,0,0,0-1.292-3.024,3.768,3.768,0,0,1,.223-1.672c.309-.487-.29-6.448-.29-6.448a19.57,19.57,0,0,0-.409-4.224,4.771,4.771,0,0,1,.329-2.945.406.406,0,0,0-.013-.085.093.093,0,0,0,.009-.02s-.024-.186-.065-.453v.028c-.112-.762-.321-2.141-.461-2.776-.2-.9-.162-5.265-.162-5.265l.665-1.888,1.431,3.159,1.554,4.22a3.633,3.633,0,0,1,.775,1.79v.42a2.544,2.544,0,0,0,.483,1.507,6.651,6.651,0,0,0,1.037,2.5,2.306,2.306,0,0,1,.632,1.487,25.275,25.275,0,0,0,1.154,3.4,5.29,5.29,0,0,1,.372,1.979h0v.106s.138,1.043.167,1.923v.29a3.1,3.1,0,0,1-.058.715.062.062,0,0,1-.011.041v-.149a7.5,7.5,0,0,0-.139,1.832,4.7,4.7,0,0,0,.9,3c1.152,1.225,1.842,1.039,1.842,1.039s-.47,1.6-1.115,1.946a.33.33,0,0,0-.067.046.537.537,0,0,0-.02-.091.768.768,0,0,0-.169.6,4.233,4.233,0,0,0,.9,2.315,1.31,1.31,0,0,0,.557.3.96.96,0,0,1-.1.067,1.974,1.974,0,0,1-.221.115,1.07,1.07,0,0,1-.331.1,1.565,1.565,0,0,0-1.135.608,1.2,1.2,0,0,0,.214,1.869l2.964.9S545.308,380.138,545,379.019Z" transform="translate(-413.579 -238.315)" fill="url(#linear-gradient-2)"/>
    <path id="Path_5245" data-name="Path 5245" d="M646.769,785.168l-2.867-.892a1.229,1.229,0,0,1-.21-1.871,1.505,1.505,0,0,1,1.1-.608,1.326,1.326,0,0,0,.533-.212,1.272,1.272,0,0,0,.433-.427,2.105,2.105,0,0,0,.281-1.106s3.072-1.029,3.956-.152a2.287,2.287,0,0,1,.4.537,4.611,4.611,0,0,1,.474,1.981s.2.981.5,2.1S646.769,785.168,646.769,785.168Z" transform="translate(-534.483 -641.855)" fill="#2d293d"/>
    <path id="Path_5246" data-name="Path 5246" d="M721.034,774.765l-2.869-.9a1.23,1.23,0,0,1-.21-1.871,1.5,1.5,0,0,1,1.1-.606,1.006,1.006,0,0,0,.32-.1,1.752,1.752,0,0,0,.216-.113,1.79,1.79,0,0,0,.712-1.533s3.072-1.029,3.958-.152a2.261,2.261,0,0,1,.312.392,4.5,4.5,0,0,1,.558,2.131s.2.983.5,2.1S721.034,774.765,721.034,774.765Z" transform="translate(-594.946 -633.38)" fill="#2d293d"/>
    <path id="Path_5247" data-name="Path 5247" d="M660.517,779.858a2.288,2.288,0,0,1,.4.537h0l-4.635.719a2.106,2.106,0,0,0,.281-1.106S659.632,778.981,660.517,779.858Z" transform="translate(-545.007 -641.821)" opacity="0.1"/>
    <path id="Path_5248" data-name="Path 5248" d="M732.228,769.882l.033.872c-.676,1.221-4.191,1.095-5.231.535a1.746,1.746,0,0,0,.216-.113,1.79,1.79,0,0,0,.712-1.533s3.072-1.029,3.958-.152A2.262,2.262,0,0,1,732.228,769.882Z" transform="translate(-602.61 -633.38)" opacity="0.1"/>
    <path id="Path_5249" data-name="Path 5249" d="M646.367,551.265a7.769,7.769,0,0,0-.507,1.208l.121,3.126c-.743,1.336-4.874,1.059-5.456.372s-1.245-2.527-.624-2.869,1.074-1.942,1.074-1.942-.667.186-1.784-1.041-.909-4.047-.743-4.728a14.509,14.509,0,0,0-.115-2.929,5.861,5.861,0,0,0-.357-2.085,25.807,25.807,0,0,1-1.115-3.4,2.343,2.343,0,0,0-.611-1.487,6.79,6.79,0,0,1-1.007-2.5,2.6,2.6,0,0,1-.461-1.685,3.459,3.459,0,0,0-.753-2.033l-1.509-4.22-1.39-3.159-.641,1.888s-.03,4.36.164,5.263.524,3.31.524,3.31a4.87,4.87,0,0,0-.323,2.944,20.137,20.137,0,0,1,.4,4.226s.587,5.962.288,6.448a3.854,3.854,0,0,0-.212,1.672s1.756,3.419,1.26,3.914-.288,1.793-.288,1.793,1.115-.043.65.452-.715,3-.715,3l-4.763.743a9.934,9.934,0,0,1-1.15-1.977c-.689-1.44.069-1.31.7-1.487s.214-.557-.557-1.009-.372-1.531-.372-1.531,1.072-1.983.671-2.126-.546-2.871-.546-2.871-.916-3.215-.743-4.088a7.814,7.814,0,0,0-.743-2.944l-.372-2.483a6.856,6.856,0,0,1-1.07-4.683l-.149-3.839s-1.394-7.4-1.7-11.15c-.186-2.4-.292-5.69-.336-7.742-.026-1.152-.035-1.914-.035-1.914L638.1,505.26a14.162,14.162,0,0,0,.407,2.527c.21.929.531,2.137,1.018,3.64a16.707,16.707,0,0,1,.768,7.578l.054,5.506s1.645,3.622,1.377,4.9a10.549,10.549,0,0,0-.221,2.3s3.672,7.9,3.406,10.252,1.338,5.971,1.338,5.971S646.735,550.536,646.367,551.265Z" transform="translate(-516.34 -418.541)" fill="#575988"/>
    <path id="Path_5250" data-name="Path 5250" d="M700.34,639.994l5.177-.894S702.693,642.222,700.34,639.994Z" transform="translate(-580.88 -527.509)" opacity="0.05"/>
    <path id="Path_5251" data-name="Path 5251" d="M719.363,611.9s.249,1.832-.853,2.568C718.51,614.468,720.517,614.074,719.363,611.9Z" transform="translate(-595.673 -505.364)" opacity="0.1"/>
    <path id="Path_5252" data-name="Path 5252" d="M693.751,580.45s-4.213,3.748-5.805,3.512S693.751,580.45,693.751,580.45Z" transform="translate(-570.606 -479.758)" opacity="0.1"/>
    <path id="Path_5253" data-name="Path 5253" d="M651.424,654.29s-3.278.875-3.326,2.208S651.424,654.29,651.424,654.29Z" transform="translate(-538.345 -539.876)" opacity="0.1"/>
    <path id="Path_5254" data-name="Path 5254" d="M657.831,742.93s-4.635,1.05-3.287,1.593a22.341,22.341,0,0,0,3.544.929S659.593,745.478,657.831,742.93Z" transform="translate(-543.394 -612.044)" opacity="0.05"/>
    <g id="Group_9276" data-name="Group 9276" transform="translate(104.743 89.033)" opacity="0.05">
      <path id="Path_5255" data-name="Path 5255" d="M648.119,753.87a.929.929,0,0,1-.452-.66l-.045.086s-.4,1.085.372,1.531c.089.05.171.1.251.151.136-.032.286-.056.427-.1C649.308,754.7,648.89,754.316,648.119,753.87Z" transform="translate(-642.618 -709.447)"/>
      <path id="Path_5256" data-name="Path 5256" d="M682.088,750.246c.125-.125.108-.427.015-.816a2.187,2.187,0,0,0-.221,1.156A.908.908,0,0,1,682.088,750.246Z" transform="translate(-670.592 -706.369)"/>
      <path id="Path_5257" data-name="Path 5257" d="M673.96,648a5.387,5.387,0,0,0-.26,1.466,5.78,5.78,0,0,1,.323-1.015S674,648.282,673.96,648Z" transform="translate(-663.933 -623.788)"/>
      <path id="Path_5258" data-name="Path 5258" d="M731.881,632.735a1.858,1.858,0,0,0,.028-.435c-.048.3-.078.574-.1.816C731.83,632.988,731.855,632.865,731.881,632.735Z" transform="translate(-711.244 -611.005)"/>
      <path id="Path_5259" data-name="Path 5259" d="M676.958,719.883a2.6,2.6,0,0,0,.084-.883,3,3,0,0,0-.186,1.115A1.062,1.062,0,0,1,676.958,719.883Z" transform="translate(-666.501 -681.594)"/>
      <path id="Path_5260" data-name="Path 5260" d="M654.632,763.7a15.47,15.47,0,0,0-.452,2.451l-4.763.743a9.825,9.825,0,0,1-1.147-1.981c-.06-.126-.11-.24-.149-.344-.281.143-.383.444.028,1.3a10.01,10.01,0,0,0,1.148,1.977l4.763-.743s.26-2.507.717-3C655,763.865,654.846,763.756,654.632,763.7Z" transform="translate(-642.908 -717.987)"/>
      <path id="Path_5261" data-name="Path 5261" d="M626.269,556.56s.145,2.73.546,2.873h0c.186-.461.3-.894.119-.957-.4-.143-.546-2.873-.546-2.873s-.916-3.213-.743-4.088a7.8,7.8,0,0,0-.743-2.944l-.372-2.481a6.867,6.867,0,0,1-1.052-4.676l-.149-3.837s-1.394-7.4-1.7-11.15c-.186-2.4-.292-5.69-.336-7.742,0-.372-.015-.7-.02-.976l-.136.019s0,.762.033,1.914c.047,2.044.143,5.337.338,7.74.3,3.754,1.7,11.15,1.7,11.15l.136,3.836a6.867,6.867,0,0,0,1.052,4.676l.372,2.483a7.854,7.854,0,0,1,.743,2.942C625.342,553.345,626.269,556.56,626.269,556.56Z" transform="translate(-621.14 -517.71)"/>
      <path id="Path_5262" data-name="Path 5262" d="M722.043,764.3a4.583,4.583,0,0,1-.831-1.849c-.472.459.156,2.148.708,2.806.582.691,4.713.968,5.454-.372l-.03-.754C726.317,765.236,722.591,764.953,722.043,764.3Z" transform="translate(-702.48 -716.969)"/>
      <path id="Path_5263" data-name="Path 5263" d="M755.617,746.97a7.763,7.763,0,0,0-.507,1.208l.02.557a8.525,8.525,0,0,1,.372-.808,2.415,2.415,0,0,0,.136-.987A.123.123,0,0,0,755.617,746.97Z" transform="translate(-730.214 -704.342)"/>
      <path id="Path_5264" data-name="Path 5264" d="M716.3,726.386a7.811,7.811,0,0,0,.353-.955s-.667.186-1.784-1.041c-.812-.892-.929-2.63-.857-3.771-.173.68-.381,3.5.743,4.726A2.786,2.786,0,0,0,716.3,726.386Z" transform="translate(-696.639 -682.913)"/>
      <path id="Path_5265" data-name="Path 5265" d="M680.131,610.531a21.613,21.613,0,0,1,.169,2.341,3.045,3.045,0,0,1,.067-.372,13.953,13.953,0,0,0-.115-2.927,5.869,5.869,0,0,0-.357-2.087,25.807,25.807,0,0,1-1.115-3.4,2.346,2.346,0,0,0-.611-1.487,6.809,6.809,0,0,1-1.011-2.492,2.588,2.588,0,0,1-.461-1.685,3.468,3.468,0,0,0-.743-2.031l-1.522-4.228L673.041,589l-.641,1.9v.6l.52-1.533,1.39,3.159,1.511,4.222a3.409,3.409,0,0,1,.743,2.031,2.6,2.6,0,0,0,.461,1.687,6.812,6.812,0,0,0,1.007,2.5,2.357,2.357,0,0,1,.613,1.487,26.68,26.68,0,0,0,1.115,3.4A6.051,6.051,0,0,1,680.131,610.531Z" transform="translate(-662.874 -575.752)"/>
    </g>
    <path id="Path_5266" data-name="Path 5266" d="M699.281,296.714l-.242,1.457.043.641.03.474-1.643.234-.2-.335h0a16.042,16.042,0,0,0-1.36-2.024c-.316-.243-1.015-4.239-.351-4.027a1.736,1.736,0,0,1,.951.8S699.768,294.179,699.281,296.714Z" transform="translate(-576.762 -245.828)" fill="#ffcdd3"/>
    <path id="Path_5267" data-name="Path 5267" d="M707.822,323.467l-1.643.234-.2-.335h0a1.459,1.459,0,0,1,1.812-.372Z" transform="translate(-585.471 -270.009)" opacity="0.1"/>
    <path id="Path_5268" data-name="Path 5268" d="M707.9,324.89l-2.157.587-.059-.322-.156-.868a1.5,1.5,0,0,1,2.1-.372l.126.44Z" transform="translate(-585.105 -270.666)" fill="#dce6f2"/>
    <path id="Path_5269" data-name="Path 5269" d="M504.257,290.584l-2.275,1.338s-.1-.186-.229-.431c-.238-.455-.595-1.141-.7-1.386-.152-.372-1.141-.829-1.141-.829-2.522-2.23.3-4.339.3-4.339,1.414-3.146,3.286.929,3.286.929a10.529,10.529,0,0,1,.158,2.323c-.162.154-.139.743-.139.743a8.706,8.706,0,0,1,.611,1.3C504.214,290.45,504.257,290.584,504.257,290.584Z" transform="translate(-416.849 -238.19)" fill="#ffcdd3"/>
    <path id="Path_5270" data-name="Path 5270" d="M516.893,319.058l-2.275,1.338s-.1-.186-.229-.431c.318-.286,1.444-1.275,1.829-1.247a2.951,2.951,0,0,0,.557,0C516.85,318.924,516.893,319.058,516.893,319.058Z" transform="translate(-429.485 -266.663)" opacity="0.1"/>
    <path id="Path_5271" data-name="Path 5271" d="M517.507,320.309l-2.561,1.386-.074-.557-.052-.387s1.464-1.355,1.912-1.323a2.392,2.392,0,0,0,.682-.028l.048.47Z" transform="translate(-429.835 -267.22)" fill="#dce6f2"/>
    <path id="Path_5272" data-name="Path 5272" d="M643.119,327.08s-11.336,1.723-9.236.95a2.852,2.852,0,0,0,2.1-2.553,5.839,5.839,0,0,0-.524-2.618,11.338,11.338,0,0,0-1.1-2.018s8.52-5.123,6.954-.706a6.939,6.939,0,0,0-.414,2.081,5.788,5.788,0,0,0,.3,2.079,6.22,6.22,0,0,0,1.918,2.786Z" transform="translate(-526.561 -266.355)" fill="#ffcdd3"/>
    <path id="Path_5273" data-name="Path 5273" d="M644.558,320.132a6.937,6.937,0,0,0-.414,2.081,4.013,4.013,0,0,1-2.849.755,5.158,5.158,0,0,1-2.587-.113,11.334,11.334,0,0,0-1.1-2.018S646.125,315.715,644.558,320.132Z" transform="translate(-529.807 -266.353)" opacity="0.1"/>
    <circle id="Ellipse_873" data-name="Ellipse 873" cx="4.713" cy="4.713" r="4.713" transform="translate(106.445 47.501)" fill="#ffcdd3"/>
    <path id="Path_5274" data-name="Path 5274" d="M643.119,351.31s-11.336,1.723-9.236.95a2.852,2.852,0,0,0,2.1-2.553,6.414,6.414,0,0,1,2.388-1.386,3.419,3.419,0,0,1,2.063-.113,2.844,2.844,0,0,1,.764.32,6.22,6.22,0,0,0,1.923,2.784Z" transform="translate(-526.561 -290.585)" opacity="0.1"/>
    <path id="Path_5275" data-name="Path 5275" d="M708.587,327.821l-2.157.587-.06-.321a1.927,1.927,0,0,1,2.066-.8Z" transform="translate(-585.789 -273.596)" opacity="0.1"/>
    <path id="Path_5276" data-name="Path 5276" d="M517.735,322.369l-2.561,1.386-.074-.557a19.084,19.084,0,0,1,2.591-1.267Z" transform="translate(-430.063 -269.279)" opacity="0.1"/>
    <path id="Path_5277" data-name="Path 5277" d="M638.547,507.777c-4.382.866-10.624,2.014-11.631,1.749a29.119,29.119,0,0,0-5.761.076c-.026-1.152-.035-1.914-.035-1.914l17.026-2.438A13.677,13.677,0,0,0,638.547,507.777Z" transform="translate(-516.381 -418.533)" opacity="0.1"/>
    <path id="Path_5278" data-name="Path 5278" d="M553.7,358s-14.426,3.051-16,2.637-9.557.407-9.557.407c-3.508,2.551-2.141-1.067-2.141-1.067a8.846,8.846,0,0,1-.011-3.367,20.621,20.621,0,0,0,.465-3.386s-.171-2.371.243-2.942.775-4.547.775-4.547.292-2.708.23-3.3.032-2.26.032-2.26l.407-2.787c-2.973-.282-12.217-5.475-12.217-5.475-.507-1.843-4.038-6.066-4.038-6.066a4.5,4.5,0,0,0-.318-1.057c-.262-.624,3.25-2.027,3.25-2.027s2.776,3.142,3.364,3.992a18.022,18.022,0,0,0,2.55,2.4,1.956,1.956,0,0,1,.875.082.255.255,0,0,1,.047.013h0a7.13,7.13,0,0,1,1.812.95,3.438,3.438,0,0,1,2.447.818s1.613-.3,1.9-.033,1.661-.063,1.661-.063,1.273-2.983,2.215-2.167,4.8.628,4.8.628a5.7,5.7,0,0,1,2.494-1.526,3.42,3.42,0,0,1,2.063-.113,2.672,2.672,0,0,1,.831.372l2.431,2.2s.639-.9.557-1.091.779-.387.779-.387,1.134-.4,1.565-.535.847.32.883.361a4.664,4.664,0,0,1-.262-1.732,2.049,2.049,0,0,0-.53-1.407c1.254-3.456,4.49-.727,4.49-.727a6.508,6.508,0,0,1,.138,2.57c-.29.725.4,2.2.338,2.6s.2,1.063.229,1.814a10.481,10.481,0,0,1-.535,2.823c-.219.648-2.044,2.139-2.044,2.139a8.933,8.933,0,0,1-.812,3.6c-.781,1.336-.095,5.79-.095,5.79s.929,3.451,1.957,4.521S553.7,358,553.7,358Z" transform="translate(-427.177 -269.955)" fill="#656691"/>
    <path id="Path_5279" data-name="Path 5279" d="M610.053,366.31s-.485-1.29-.886-1.392a9.413,9.413,0,0,1-1.167-.47l.236-.5s1.5.351,1.756.777A3.443,3.443,0,0,1,610.053,366.31Z" transform="translate(-505.699 -303.491)" opacity="0.1"/>
    <path id="Path_5280" data-name="Path 5280" d="M560.012,358.508c-.065.4-3.572.89-3.572.89l1.712-1.858h0l.045.015h0A7.131,7.131,0,0,1,560.012,358.508Z" transform="translate(-463.721 -298.272)" opacity="0.1"/>
    <circle id="Ellipse_874" data-name="Ellipse 874" cx="0.316" cy="0.316" r="0.316" transform="translate(85.576 54.882)" fill="#575988"/>
    <circle id="Ellipse_875" data-name="Ellipse 875" cx="0.316" cy="0.316" r="0.316" transform="translate(86.005 55.499)" fill="#575988"/>
    <circle id="Ellipse_876" data-name="Ellipse 876" cx="0.316" cy="0.316" r="0.316" transform="translate(86.423 56.068)" fill="#575988"/>
    <circle id="Ellipse_877" data-name="Ellipse 877" cx="0.316" cy="0.316" r="0.316" transform="translate(86.864 56.685)" fill="#575988"/>
    <circle id="Ellipse_878" data-name="Ellipse 878" cx="0.258" cy="0.258" r="0.258" transform="translate(124.218 55.273)" fill="#575988"/>
    <circle id="Ellipse_879" data-name="Ellipse 879" cx="0.258" cy="0.258" r="0.258" transform="translate(124.279 55.854)" fill="#575988"/>
    <circle id="Ellipse_880" data-name="Ellipse 880" cx="0.258" cy="0.258" r="0.258" transform="translate(124.337 56.436)" fill="#575988"/>
    <path id="Path_5281" data-name="Path 5281" d="M621.379,434.349c-.039-.046,9.314,10.875,15.982,4.1C637.368,438.449,626.484,440.354,621.379,434.349Z" transform="translate(-516.592 -360.807)" opacity="0.1"/>
    <path id="Path_5282" data-name="Path 5282" d="M595,466.919s5.343-.06,5.96,1.453l.061,1.6a1.018,1.018,0,0,1-.992.039c-.558-.271-3.839-1.786-4.947-.953Z" transform="translate(-495.115 -387.324)" opacity="0.1"/>
    <path id="Path_5283" data-name="Path 5283" d="M595.55,466.9s5.11-.058,5.7,1.386l.06,1.522a.979.979,0,0,1-.95.037c-.526-.256-3.672-1.7-4.731-.907Z" transform="translate(-495.563 -387.308)" fill="#656691"/>
    <path id="Path_5284" data-name="Path 5284" d="M608.29,404a17.211,17.211,0,0,0,2.208,3.469,13.9,13.9,0,0,0,3.362,3.007S608.409,404.721,608.29,404Z" transform="translate(-505.935 -336.098)" opacity="0.1"/>
    <path id="Path_5285" data-name="Path 5285" d="M597.61,370.94s1.039,3.81,3.384,5.027Z" transform="translate(-497.24 -309.182)" opacity="0.1"/>
    <path id="Path_5286" data-name="Path 5286" d="M590.1,373.3c-.026-.071-.675,3.07,3.141,4.646C593.24,377.953,591.627,377.473,590.1,373.3Z" transform="translate(-491.079 -311.106)" opacity="0.1"/>
    <path id="Path_5287" data-name="Path 5287" d="M715.224,354.588a26.4,26.4,0,0,1,2.436,1.689S716.349,354.474,715.224,354.588Z" transform="translate(-592.997 -295.864)" opacity="0.1"/>
    <path id="Path_5288" data-name="Path 5288" d="M631.505,295.766a.987.987,0,0,0,.392.621.959.959,0,0,0,.448.082,9.568,9.568,0,0,0,4.241-.557,1.6,1.6,0,0,0,.632-.455,2.639,2.639,0,0,0,.336-1.056,14.987,14.987,0,0,1,.792-2.033,6.712,6.712,0,0,0,.327-3.609,2.415,2.415,0,0,0-.4-1.037c-.4-.53-1.1-.723-1.624-1.135s-.87-1.063-1.47-1.366a2.724,2.724,0,0,0-1.78-.089,9.333,9.333,0,0,0-3.269,1.377,1.655,1.655,0,0,1-1.093.418,1.516,1.516,0,0,1-.84-.593,4.4,4.4,0,0,0-.273,2.065.915.915,0,0,1,0,.31.939.939,0,0,1-.206.335,1.2,1.2,0,0,0-.169,1.487c.16.175.4.264.557.442.279.321.208.8.217,1.225a.627.627,0,0,0,.121.413.609.609,0,0,0,.585.117,1.574,1.574,0,0,1,.617-.084,1.02,1.02,0,0,1,.557.394A7.3,7.3,0,0,1,631.505,295.766Z" transform="translate(-521.455 -239.234)" fill="#2d293d"/>
    <g id="Group_9277" data-name="Group 9277" transform="translate(105.896 47.044)" opacity="0.1">
      <path id="Path_5289" data-name="Path 5289" d="M637.354,313.38a1.591,1.591,0,0,1-.63.453,9.4,9.4,0,0,1-4.242.557.744.744,0,0,1-.84-.7,7.426,7.426,0,0,0-1.3-2.739,1.029,1.029,0,0,0-.557-.392,1.6,1.6,0,0,0-.617.082.613.613,0,0,1-.587-.115.643.643,0,0,1-.121-.414c-.009-.424.061-.9-.216-1.223-.156-.186-.394-.268-.558-.444a.929.929,0,0,1-.126-.94,1.083,1.083,0,0,0-.019,1.264c.158.175.4.264.558.444.279.32.208.8.217,1.223a.626.626,0,0,0,.121.413.61.61,0,0,0,.585.117,1.609,1.609,0,0,1,.617-.084,1.02,1.02,0,0,1,.557.394,7.213,7.213,0,0,1,1.3,2.739,1,1,0,0,0,.392.623.981.981,0,0,0,.448.082,9.621,9.621,0,0,0,4.241-.557,1.617,1.617,0,0,0,.632-.453,1.31,1.31,0,0,0,.186-.39A.735.735,0,0,1,637.354,313.38Z" transform="translate(-627.344 -304.575)"/>
      <path id="Path_5290" data-name="Path 5290" d="M630.322,294.055a.667.667,0,0,0,.134-.243.862.862,0,0,0,0-.309,4.362,4.362,0,0,1,.154-1.712l-.028-.032a4.4,4.4,0,0,0-.273,2.065A1.208,1.208,0,0,1,630.322,294.055Z" transform="translate(-629.737 -291.76)"/>
    </g>
    <path id="Path_5291" data-name="Path 5291" d="M645.77,356.811s5.911.557,6.407-.351" transform="translate(-536.45 -297.393)" opacity="0.1"/>
    <path id="Path_5292" data-name="Path 5292" d="M706.8,342.865s3.269-.121,4.034,1.076" transform="translate(-586.139 -286.321)" opacity="0.1"/>
    <path id="Path_5293" data-name="Path 5293" d="M1078.129,677s1.1,1.44-.509,3.616-2.938,4.012-2.4,5.369c0,0,2.431-4.04,4.408-4.1S1080.3,679.427,1078.129,677Z" transform="translate(-885.995 -558.366)" fill="#253240"/>
    <path id="Path_5294" data-name="Path 5294" d="M1078.4,677a1.713,1.713,0,0,1,.225.452c1.931,2.267,2.958,4.384,1.1,4.436-1.728.05-3.8,3.141-4.3,3.919a1.8,1.8,0,0,0,.059.186s2.431-4.04,4.408-4.1S1080.576,679.427,1078.4,677Z" transform="translate(-886.266 -558.366)" opacity="0.1"/>
    <path id="Path_5295" data-name="Path 5295" d="M1101.325,685.45c0,.507-.058.918-.128.918s-.126-.411-.126-.918.071-.268.141-.268S1101.325,684.942,1101.325,685.45Z" transform="translate(-907.141 -564.981)" fill="#ffd037"/>
    <path id="Path_5296" data-name="Path 5296" d="M1102.408,688.564c-.446.242-.834.388-.868.327s.3-.308.743-.557.27-.067.3,0S1102.852,688.32,1102.408,688.564Z" transform="translate(-907.521 -567.49)" fill="#ffd037"/>
    <path id="Path_5297" data-name="Path 5297" d="M1049.256,677s-1.1,1.44.507,3.616,2.94,4.012,2.4,5.369c0,0-2.431-4.04-4.408-4.1S1047.08,679.427,1049.256,677Z" transform="translate(-862.942 -558.366)" fill="#253240"/>
    <path id="Path_5298" data-name="Path 5298" d="M1049.256,677a1.713,1.713,0,0,0-.225.452c-1.931,2.267-2.958,4.384-1.1,4.436,1.728.05,3.8,3.141,4.3,3.919a1.8,1.8,0,0,1-.059.186s-2.431-4.04-4.408-4.1S1047.08,679.427,1049.256,677Z" transform="translate(-862.942 -558.366)" opacity="0.1"/>
    <path id="Path_5299" data-name="Path 5299" d="M1049.06,685.45c0,.507.058.918.128.918s.126-.411.126-.918-.071-.268-.141-.268S1049.06,684.942,1049.06,685.45Z" transform="translate(-864.796 -564.981)" fill="#ffd037"/>
    <path id="Path_5300" data-name="Path 5300" d="M1044.1,688.564c.446.242.834.388.868.327s-.3-.308-.743-.557-.271-.067-.3,0S1043.649,688.32,1044.1,688.564Z" transform="translate(-860.534 -567.49)" fill="#ffd037"/>
    <ellipse id="Ellipse_881" data-name="Ellipse 881" cx="11.522" cy="1.767" rx="11.522" ry="1.767" transform="translate(177.7 135.106)" fill="#253240" opacity="0.1"/>
    <path id="Path_5301" data-name="Path 5301" d="M1055.689,711.943l-.056.45-.076.635-.031.266-.078.636-.033.266-.078.634-.881,7.229c-.08.645-1.134,1.149-2.4,1.149h-4.583c-1.273,0-2.325-.5-2.4-1.149l-.885-7.229-.076-.634-.032-.266-.08-.636-.032-.266-.078-.635-.054-.45c-.045-.372.526-.673,1.245-.673h9.377C1055.163,711.27,1055.735,711.577,1055.689,711.943Z" transform="translate(-860.535 -586.267)" fill="#65617d"/>
    <path id="Path_5302" data-name="Path 5302" d="M998.38,678.69l-.078.636h-11.6l-.076-.636Z" transform="translate(-803.282 -552.565)" fill="#9d9cb5"/>
    <path id="Path_5303" data-name="Path 5303" d="M998.751,683.53l-.076.637H987.3l-.078-.637Z" transform="translate(-803.763 -556.506)" fill="#9d9cb5"/>
    <path id="Path_5304" data-name="Path 5304" d="M999.12,688.38l-.076.635H987.888l-.078-.635Z" transform="translate(-804.243 -560.454)" fill="#9d9cb5"/>
  </g>
</svg>
