<svg xmlns="http://www.w3.org/2000/svg" xmlns:xlink="http://www.w3.org/1999/xlink" width="163.786" height="114.04" viewBox="0 0 163.786 114.04"><defs><style>.a,.c{fill:#253240;}.a,.b,.g{opacity:0.1;}.d{fill:url(#a);}.e{fill:#fbbebe;}.f{fill:#464353;}.h{fill:#f86d70;}.i{opacity:0.05;}.j{fill:#3f3d56;}.k{opacity:0.2;}.l{fill:#fff;}.m{fill:none;stroke:#3f3d56;stroke-miterlimit:10;stroke-width:9px;}</style><linearGradient id="a" x1="0.5" y1="1" x2="0.5" gradientUnits="objectBoundingBox"><stop offset="0" stop-color="gray" stop-opacity="0.251"/><stop offset="0.54" stop-color="gray" stop-opacity="0.122"/><stop offset="1" stop-color="gray" stop-opacity="0.102"/></linearGradient></defs><g transform="translate(-0.003 -0.048)"><path class="a" d="M193.517,113.827c-10.421-.362-20.346-3.726-29.825-7.407s-18.864-7.759-29.036-9.7c-6.542-1.254-14.023-1.431-19.294,2.075-5.072,3.381-6.711,9.2-7.593,14.607-.662,4.069-1.053,8.349.765,12.157,1.261,2.644,3.5,4.866,5.049,7.4,5.388,8.811,1.58,19.676-4.26,28.279-2.737,4.035-5.916,7.89-8.03,12.182s-3.091,9.218-1.243,13.6c1.834,4.347,6.2,7.606,10.933,9.9,9.611,4.66,20.932,5.995,31.981,6.75,24.445,1.673,49.022.948,73.532.224,9.072-.269,18.182-.541,27.105-1.943,4.956-.779,10.073-2.016,13.67-4.991A11.45,11.45,0,0,0,259.909,182c-5.133-7.969-19.322-9.949-22.914-18.5-1.976-4.706.053-9.951,2.922-14.316,6.157-9.366,16.477-17.581,17.021-28.287.374-7.352-4.587-14.715-12.258-18.195-8.041-3.647-19.19-3.188-25.118,2.848C213.45,111.755,202.717,114.146,193.517,113.827Z" transform="translate(-97.834 -95.85)"/><g class="b" transform="translate(0.003 51.511)"><path class="c" d="M105.3,416.915s-12.034-5.062-13.617,4.066a2.223,2.223,0,0,0,.322,2.6s.246-.631,1.409.021a5.986,5.986,0,0,0,1.314.535,2.956,2.956,0,0,0,1.871-.1h0s3.959-.214,7.289-5.394c0,0,1.428-.882,1.5-1.214l-2.386.161a3.961,3.961,0,0,1-.805,2.8s.876-2.711.456-2.787c-.085-.016-1.261.138-1.261.138s.3,3.038-1.288,4.61c0,0,1.478-3.09.836-4.555l-1.761.34s.483,3.2-1.259,5.054c0,0,1.433-3.285.879-4.953l-1.686.567s.406,3.125-1.051,4.669c0,0,1.272-3.963.673-4.508a8.775,8.775,0,0,0-1.84.966s.24,2.254-.686,3.067c0,0,.568-2.737.287-2.85a9.219,9.219,0,0,0-2.3,2.472,6.679,6.679,0,0,1,2.079-2.737,3.706,3.706,0,0,0-2.093.295s.609-1.161,2.52-.61a8.3,8.3,0,0,1,1.7-.966,8.133,8.133,0,0,0-3.114-.705s1.4-.805,3.555.539l1.683-.607a11.462,11.462,0,0,0-3.5-1.191s1.555-.6,3.94,1.072l1.723-.351a13.7,13.7,0,0,0-3.235-1.459s1.562-.248,3.732,1.377l1.177-.1s-1.425-.84-1.856-1.045-.412-.337-.412-.337a5.618,5.618,0,0,1,2.763,1.33A13.608,13.608,0,0,0,105.3,416.915Z" transform="translate(-91.393 -415.515)"/></g><g class="b" transform="translate(1.77 37.308)"><path class="c" d="M114.064,333.834s-4.268-9.865-10.406-5.341a1.828,1.828,0,0,0-1.288,1.723s.506-.235.826.816a4.847,4.847,0,0,0,.483,1.064,2.415,2.415,0,0,0,1.167,1.006h0s2.475,2.129,7.407.948a4.832,4.832,0,0,0,1.583.134l-1.507-1.267a3.246,3.246,0,0,1-2.075,1.2s2.066-1.111,1.86-1.4c-.042-.058-.829-.634-.829-.634s-1.549,1.977-3.381,2.008c0,0,2.639-1,3.091-2.23l-1.24-.805s-1.536,2.172-3.628,2.285c0,0,2.723-1.135,3.344-2.443l-1.325-.623s-1.539,2.093-3.28,2.172c0,0,3.014-1.629,2.967-2.294a6.992,6.992,0,0,0-1.649-.47s-1.138,1.473-2.154,1.431c0,0,1.9-1.3,1.8-1.53a7.541,7.541,0,0,0-2.774.161,5.5,5.5,0,0,1,2.794-.441,3.027,3.027,0,0,0-1.409-1.014s1.024-.343,1.845,1.071a7.03,7.03,0,0,1,1.562.393,6.613,6.613,0,0,0-1.449-2.193s1.288.322,1.8,2.346l1.346.6a9.389,9.389,0,0,0-1.4-2.7s1.267.528,1.731,2.882l1.224.771a11.293,11.293,0,0,0-1.09-2.71,4.461,4.461,0,0,1,1.431,2.945l.757.612s-.369-1.311-.509-1.678-.053-.435-.053-.435a4.613,4.613,0,0,1,.884,2.364A10.909,10.909,0,0,0,114.064,333.834Z" transform="translate(-102.37 -327.306)"/></g><path class="d" d="M671.919,368.288a6.121,6.121,0,0,0-.644-1.681,5.84,5.84,0,0,0-1.056-1.154c-1.167-1.061-2.6-2.138-4.149-1.869a5.474,5.474,0,0,0-1.378.5c-.225.1-.452.209-.684.3a3.413,3.413,0,0,1-2.066.18c-.354-.1-.684-.266-1.034-.372a3.336,3.336,0,0,0-.509-.109,9.367,9.367,0,0,0,.982-.517,5.668,5.668,0,0,0,2.929-5.051,8.236,8.236,0,0,0-.538-2.006l-.62-1.712a7.29,7.29,0,0,0-1.032-2.114,5.378,5.378,0,0,0-2.116-1.5,20.55,20.55,0,0,0-5.444-1.262l-.129-.018v-20a1.288,1.288,0,0,0-1.288-1.3h-2.436l-.322-1.969a18.416,18.416,0,0,0-1.486-5.46,4.1,4.1,0,0,0-2.671-2.37,2.665,2.665,0,0,1-.7-.161c-.354-.174-.547-.56-.821-.847-.7-.736-1.844-.747-2.786-1.127a14.569,14.569,0,0,1-2.267-1.431,2.968,2.968,0,0,0-2.538-.507,1.731,1.731,0,0,1-.018.182l-.538-.242a5.894,5.894,0,0,1-1.638-.985,4.692,4.692,0,0,1-1.166-2.106c-.026-.084-.05-.161-.074-.25a7.492,7.492,0,0,0,2-3.827c.043.14.089.282.132.423a2.239,2.239,0,0,0,.161.417,1.1,1.1,0,0,0,.076.127.82.82,0,0,0,.2.2.549.549,0,0,0,.259.1.483.483,0,0,0,.135,0,.744.744,0,0,0,.541-.462.968.968,0,0,0,.056-.2,1.015,1.015,0,0,0,.011-.122v-.29a.466.466,0,0,0-.016-.095c-.006-.031,0-.018,0-.026-.008-.042-.018-.082-.026-.124a.171.171,0,0,1,0-.027l-.024-.1-.014-.061v-.016h0c-.016-.063-.031-.127-.045-.192a5.548,5.548,0,0,1-.089-1.7,18.448,18.448,0,0,1,.461-2.473l.034-.147.039-.171c.026-.116.05-.232.074-.348h0c.021-.1.04-.2.058-.3s.031-.175.043-.264v-.032a7.652,7.652,0,0,0,.079-1.816h0a3.817,3.817,0,0,0-.91-2.275c-.4-.449-.935-.781-1.311-1.253-.353-.443-.551-.987-.915-1.42-1.006-1.2-3.587-2.127-5.172-2.288a10.579,10.579,0,0,0-6.209,1.353,6,6,0,0,0-1.288,1.509,7.413,7.413,0,0,1-2.589,2.576,3.135,3.135,0,0,0-1.179.744,2.026,2.026,0,0,0-.322.836,16.458,16.458,0,0,0-.332,3.188,3.931,3.931,0,0,0,.177,1.385c.023.061.05.124.079.184h0c.026.053.055.106.085.161l.019.034a6.7,6.7,0,0,1,.517.878,1.273,1.273,0,0,1,.077.267,1.979,1.979,0,0,1-.045.707h0a.45.45,0,0,1-.021.1l-.014.074a.133.133,0,0,1-.013.069q-.019.1-.034.208c0,.048-.01.1-.011.148a1.209,1.209,0,0,0,.111.58.741.741,0,0,0,.076.122.644.644,0,0,0,.217.185,2.437,2.437,0,0,0,.6.142,1.8,1.8,0,0,1,1.224,1.161,4.1,4.1,0,0,1,.143.388,6.857,6.857,0,0,1,.225,1.01c.274-.014.433-.256.53-.52a2.447,2.447,0,0,0,.076-.266c.037-.169.074-.338.113-.507a7.485,7.485,0,0,0,2.94,3.24c.045.132.089.266.129.4a2.727,2.727,0,0,1-.053,2.132,2.261,2.261,0,0,1-1.19.926.787.787,0,0,0-.266-.227,1.226,1.226,0,0,0-1.288.364c-.644.583-1.169,1.419-2.018,1.61a2.342,2.342,0,0,0-.9.243,2.081,2.081,0,0,0-.417.549,1.921,1.921,0,0,1-1.649.821c-.295-.014-.644-.082-.845.134-.15.161-.161.417-.322.57-.217.213-.57.108-.873.1a1.61,1.61,0,0,0-1.167.506,2.747,2.747,0,0,0-.7-1.755,9.284,9.284,0,0,0-1.554-1.029c-1.288-.876-1.932-2.415-2.6-3.826s-1.557-2.9-3.022-3.412c-.336-.119-.805-.129-.956.2a.714.714,0,0,0-.024.427,4.936,4.936,0,0,0,1.138,1.956,4.883,4.883,0,0,1,1.241,3.534c-.221,1.505-1.562,2.674-1.723,4.186a19.525,19.525,0,0,0,.1,2.006,5.779,5.779,0,0,0,.024,1.249,8.473,8.473,0,0,0,.34.91,5.329,5.329,0,0,1,.222,1.5q.171,3.2.34,6.4a17.477,17.477,0,0,1-.613,4.731,14.847,14.847,0,0,0-1.008,2.9,9.884,9.884,0,0,0,.161,5.3c.3.923.771,1.787,1.021,2.726a.245.245,0,0,0,.015.06c.024.2.052.4.089.6a5.732,5.732,0,0,0,.179.676,4.82,4.82,0,0,0,.354,1.106,3.094,3.094,0,0,0,.966,1.127c-.232.454-.607.82-.857,1.264a3.878,3.878,0,0,0-.295,2.587,8.56,8.56,0,0,0,2.415,4.413,1.39,1.39,0,0,0-.161,0,2.525,2.525,0,0,0-1.1.394,7.473,7.473,0,0,0-3.465,7.584,3.25,3.25,0,0,0,.667,1.58,2.5,2.5,0,0,0,1.174.72,4.07,4.07,0,0,0,.865.161c1.982.161,3.9-.758,5.888-.836a15.853,15.853,0,0,1,1.972.092q1.435.119,2.876.151a3.808,3.808,0,0,0,3.436-1.546,4.165,4.165,0,0,0,.607-.956c.847-.048,1.782-.122,2.46-.179l.01.1a1.291,1.291,0,0,0,.351.9,1.254,1.254,0,0,0,.483.2,15.508,15.508,0,0,0,7.3.623l2.947-.34a15.007,15.007,0,0,1,2.53.551c.85.29,1.646.72,2.476,1.058a24.606,24.606,0,0,0,6.072,1.338,1.238,1.238,0,0,0,1.014-.161c.335-.322.222-.861.129-1.312-.039-.184-.068-.37-.092-.557a27.936,27.936,0,0,1,4.067,1.412l.232.1c.066.351.391.633.7,1.011a2.56,2.56,0,0,0,.356.44,1.167,1.167,0,0,0,.51.185,23.85,23.85,0,0,0,6.6.3,6.763,6.763,0,0,1,1.361-.047,5.734,5.734,0,0,1,.982.222l1.865.533a12.6,12.6,0,0,0,4.207.7,5.589,5.589,0,0,0,.86-.124,4.035,4.035,0,0,0,2.72-1.906C672.686,371.49,672.333,369.795,671.919,368.288ZM617.229,343.1a5.859,5.859,0,0,1-.538,2.014c-.2.4-.457.776-.644,1.182a6.391,6.391,0,0,0-.388,1.823c-.1-.016-.195-.031-.291-.042.143-.5.251-1.018.394-1.522A19.72,19.72,0,0,1,617.229,343.1Z" transform="translate(-521.648 -260.827)"/><path class="e" d="M697.979,739.7a3.108,3.108,0,0,1-.322-2.435,2.069,2.069,0,0,1,1.071-1.006,5.152,5.152,0,0,1,1.449-.357,20.221,20.221,0,0,1,4.711-.064,7.674,7.674,0,0,1-.335,2.7c-.188.805-.3.924-1.127.966C702.888,739.533,698.106,739.988,697.979,739.7Z" transform="translate(-599.916 -632.663)"/><ellipse class="f" cx="23.025" cy="6.441" rx="23.025" ry="6.441" transform="translate(89.376 88.946)"/><ellipse class="g" cx="23.025" cy="6.441" rx="23.025" ry="6.441" transform="translate(89.376 88.946)"/><path class="e" d="M733.645,408.515a7.163,7.163,0,0,1-3.694,3.356,9.271,9.271,0,0,1-2.924.557,8.352,8.352,0,0,1-3.236-.394,7.4,7.4,0,0,1-3.381-2.71,16.543,16.543,0,0,1-1.963-3.919,4.356,4.356,0,0,1-.4-2.227,3.161,3.161,0,0,0,2.166-1.2,2.672,2.672,0,0,0,.053-2.109c-.06-.2-.129-.407-.2-.6-.161-.467-.716-1.354-.33-1.753.246-.253,1.278-.382,1.634-.546a15.35,15.35,0,0,1,3.312-1.477,7.973,7.973,0,0,1,3.157.2,1.038,1.038,0,0,1,.39.14.937.937,0,0,1,.29.435c.3.721.47,1.518.708,2.27a4.642,4.642,0,0,0,1.164,2.085,5.943,5.943,0,0,0,1.638.976l1.427.654a1.876,1.876,0,0,1,.675.436,1.709,1.709,0,0,1,.322.876A8.182,8.182,0,0,1,733.645,408.515Z" transform="translate(-617.115 -347.128)"/><path class="g" d="M737.507,398.537a7.407,7.407,0,0,1-8.957,1.33c-.06-.2-.129-.407-.2-.6-.161-.467-.716-1.354-.33-1.753.246-.253,1.278-.382,1.634-.546a15.349,15.349,0,0,1,3.312-1.477,7.973,7.973,0,0,1,3.157.2,1.038,1.038,0,0,1,.39.14.937.937,0,0,1,.29.435C737.094,396.988,737.268,397.785,737.507,398.537Z" transform="translate(-625.4 -347.128)"/><circle class="e" cx="7.407" cy="7.407" r="7.407" transform="translate(99.359 38.548)"/><path class="h" d="M696.156,449.127l-.609-3.687a18.111,18.111,0,0,0-1.485-5.4,4.094,4.094,0,0,0-2.671-2.348,2.585,2.585,0,0,1-.7-.161c-.354-.171-.547-.554-.82-.837-.7-.728-1.845-.739-2.786-1.109a14.236,14.236,0,0,1-2.267-1.415,3.012,3.012,0,0,0-2.536-.5,12.708,12.708,0,0,1-.89,4.227,6.325,6.325,0,0,1-9.542,2.377,7.947,7.947,0,0,1-2.782-4.491c-.1-.425-.224-.913-.615-1.108a1.233,1.233,0,0,0-1.288.357c-.652.578-1.171,1.406-2.018,1.6a2.354,2.354,0,0,0-.9.242,2.045,2.045,0,0,0-.419.543,1.932,1.932,0,0,1-1.647.815c-.295-.014-.644-.082-.845.132-.15.161-.161.412-.322.562-.217.211-.57.108-.873.1a1.761,1.761,0,0,0-1.435.805,5.193,5.193,0,0,0-.644,1.588c1.76,3.919,3.37,7.843,5.13,11.762a1,1,0,0,1,.127.483,1.176,1.176,0,0,1-.219.483,8.043,8.043,0,0,0-.741,4.76,9.489,9.489,0,0,1-.517,4.811c-.2.4-.456.768-.644,1.169a11.078,11.078,0,0,0-.343,4.789h36.389c-.694-1.908-.43-5.737-.285-7.762a28.324,28.324,0,0,0-.274-4.249C696.457,454.761,696.634,452.015,696.156,449.127Z" transform="translate(-566.824 -379.134)"/><path class="f" d="M754.939,650.17a3.469,3.469,0,0,1,1.7-.053,20.71,20.71,0,0,1,5.442,1.251,5.344,5.344,0,0,1,2.116,1.483,7.336,7.336,0,0,1,1.032,2.093l.618,1.689a8.151,8.151,0,0,1,.539,1.985,5.572,5.572,0,0,1-2.937,4.991,17.548,17.548,0,0,1-5.8,1.821c-2,.393-4.008.828-6,1.288a24.147,24.147,0,0,1-2.823.555c-2.132.242-4.36-.114-6.386.591a24.29,24.29,0,0,1-2.431.9,15.128,15.128,0,0,1-1.679.271l-3.834.438a15.706,15.706,0,0,1-7.3-.612.942.942,0,0,1-.834-1.082q-.246-2.159-.432-4.323a1.621,1.621,0,0,1,1.712-2.1,39.753,39.753,0,0,1,7.355-.51c.935-.935,2.478-.94,3.7-1.449a11.009,11.009,0,0,0,1.306-.71,17.068,17.068,0,0,1,7.167-2.266,6.67,6.67,0,0,0,1.467-.209c.948-.295,1.813-1.1,2.787-.9a2.256,2.256,0,0,1,.483-1.008c.138-.118.309-.2.436-.322a1.321,1.321,0,0,0,.253-1.08,3.163,3.163,0,0,1-.032-1.14,1.578,1.578,0,0,1,.179-.4A2.168,2.168,0,0,1,754.939,650.17Z" transform="translate(-623.744 -560.766)"/><path class="i" d="M754.939,650.17a3.469,3.469,0,0,1,1.7-.053,20.71,20.71,0,0,1,5.442,1.251,5.344,5.344,0,0,1,2.116,1.483,7.336,7.336,0,0,1,1.032,2.093l.618,1.689a8.151,8.151,0,0,1,.539,1.985,5.572,5.572,0,0,1-2.937,4.991,17.548,17.548,0,0,1-5.8,1.821c-2,.393-4.008.828-6,1.288a24.147,24.147,0,0,1-2.823.555c-2.132.242-4.36-.114-6.386.591a24.29,24.29,0,0,1-2.431.9,15.128,15.128,0,0,1-1.679.271l-3.834.438a15.706,15.706,0,0,1-7.3-.612.942.942,0,0,1-.834-1.082q-.246-2.159-.432-4.323a1.621,1.621,0,0,1,1.712-2.1,39.753,39.753,0,0,1,7.355-.51c.935-.935,2.478-.94,3.7-1.449a11.009,11.009,0,0,0,1.306-.71,17.068,17.068,0,0,1,7.167-2.266,6.67,6.67,0,0,0,1.467-.209c.948-.295,1.813-1.1,2.787-.9a2.256,2.256,0,0,1,.483-1.008c.138-.118.309-.2.436-.322a1.321,1.321,0,0,0,.253-1.08,3.163,3.163,0,0,1-.032-1.14,1.578,1.578,0,0,1,.179-.4A2.168,2.168,0,0,1,754.939,650.17Z" transform="translate(-623.744 -560.766)"/><path class="j" d="M621.161,723.765a3.823,3.823,0,0,1-3.434,1.53q-1.439-.034-2.876-.15a16.151,16.151,0,0,0-1.971-.092c-1.987.077-3.9.987-5.887.828a4.173,4.173,0,0,1-.865-.161,2.516,2.516,0,0,1-1.167-.71,3.207,3.207,0,0,1-.667-1.563,7.365,7.365,0,0,1,3.465-7.5,2.54,2.54,0,0,1,1.1-.391,2.609,2.609,0,0,1,1.114.245l.024.01a8.427,8.427,0,0,1,2.76,1.842,1.555,1.555,0,0,0,.422.34,1.45,1.45,0,0,0,.5.093l2.116.134a5.015,5.015,0,0,1,1.063.147,8.443,8.443,0,0,1,1.117.483,14.308,14.308,0,0,0,3.631.841.542.542,0,0,1,.322.129.5.5,0,0,1,.1.209A4.108,4.108,0,0,1,621.161,723.765Z" transform="translate(-521.617 -615.729)"/><path class="g" d="M609.993,715.8a12.7,12.7,0,0,0-2.117,2.647,13.247,13.247,0,0,0-1.729,5.239,9.718,9.718,0,0,0-.018,2.03,2.517,2.517,0,0,1-1.167-.712,3.207,3.207,0,0,1-.667-1.563,7.365,7.365,0,0,1,3.465-7.5,2.54,2.54,0,0,1,1.1-.391,2.609,2.609,0,0,1,1.114.245Z" transform="translate(-521.617 -615.729)"/><path class="e" d="M868.983,740.422c1.183-.032,2.512-.092,3.381.705a4.356,4.356,0,0,1,.993,3.116l.063,1.3a2.6,2.6,0,0,1-.124,1.172,1.805,1.805,0,0,1-1.771.918,5.957,5.957,0,0,1-2.011-.628,28.289,28.289,0,0,0-5.474-1.724q.092-1.348.306-2.682a5.06,5.06,0,0,1,.526-2.161c.436-.541,1-.248,1.6-.148A12.822,12.822,0,0,0,868.983,740.422Z" transform="translate(-739.63 -636.343)"/><path class="f" d="M631.834,642.385c0,.161-.253,0-.275-.172a3.922,3.922,0,0,0-2.415-2.9,7.9,7.9,0,0,0-3.88-.425c-1.972.187-4.178.942-4.908,2.786-.171.432-.248.9-.457,1.312-.232.454-.61.816-.861,1.258a3.825,3.825,0,0,0-.295,2.562,9.241,9.241,0,0,0,3.9,5.635,23.318,23.318,0,0,0,6.362,2.913,110.331,110.331,0,0,0,18.034,4.307,17.33,17.33,0,0,1,2.943.607c.85.285,1.646.712,2.476,1.047a24.87,24.87,0,0,0,6.07,1.325,1.245,1.245,0,0,0,1.013-.161c.335-.311.224-.852.129-1.3a6.98,6.98,0,0,1,.82-4.95,3.243,3.243,0,0,0,.728-1.845,1.854,1.854,0,0,0-1.633-1.462,8.176,8.176,0,0,0-2.344.161,1.286,1.286,0,0,1-.805-.079,1.589,1.589,0,0,1-.312-.277,3.531,3.531,0,0,0-4.112-.575c-.288.161-.725-.2-1.024-.333l-3.383-1.534a79.874,79.874,0,0,0-11.915-4.642,2.5,2.5,0,0,1-.918-.382c-.2-.161-.351-.38-.539-.559a6.876,6.876,0,0,0-1.475-.818C632.266,643.612,631.718,642.938,631.834,642.385Z" transform="translate(-533.754 -551.361)"/><path class="j" d="M919.6,743.482a4.03,4.03,0,0,1-2.718,1.885,5.389,5.389,0,0,1-.86.122,12.7,12.7,0,0,1-4.206-.7l-1.865-.528a5.892,5.892,0,0,0-.982-.219,6.74,6.74,0,0,0-1.359.047,24.085,24.085,0,0,1-6.6-.3,1.164,1.164,0,0,1-.51-.182,2.535,2.535,0,0,1-.356-.436c-.507-.61-1.053-.966-.452-1.771.346-.467.989-.7,1.258-1.237a2.756,2.756,0,0,0-.063-1.852c-.217-.765-.932-1.095-1.188-1.8a1.265,1.265,0,0,1,.615-1.433,2.555,2.555,0,0,1,1.642-.237c.559.074,1.106.232,1.668.275,1.652.132,3.341-.72,4.927-.24.349.106.68.275,1.034.369a3.437,3.437,0,0,0,2.066-.179c.232-.087.459-.192.684-.295a5.507,5.507,0,0,1,1.377-.5c1.547-.266,2.982.805,4.149,1.85a5.865,5.865,0,0,1,1.055,1.143,5.74,5.74,0,0,1,.644,1.663C919.982,740.435,920.335,742.113,919.6,743.482Z" transform="translate(-769.317 -631.414)"/><path class="g" d="M986.88,743.448a4.03,4.03,0,0,1-2.718,1.885,5.263,5.263,0,0,0,.572-2.763,8.724,8.724,0,0,0-1.628-4.246,15.04,15.04,0,0,0-1.794-2.185c-.512-.515-1.142-.924-1.692-1.4a5.511,5.511,0,0,1,1.377-.5c1.547-.266,2.982.805,4.149,1.85a5.867,5.867,0,0,1,1.055,1.143,5.739,5.739,0,0,1,.644,1.663C987.265,740.4,987.617,742.079,986.88,743.448Z" transform="translate(-836.6 -631.381)"/><path class="j" d="M692.971,299.228a5.9,5.9,0,0,0-1.288,1.493,7.372,7.372,0,0,1-2.589,2.547,3.141,3.141,0,0,0-1.179.737,1.987,1.987,0,0,0-.314.826,16.365,16.365,0,0,0-.332,3.156,3.508,3.508,0,0,0,.256,1.552,5.315,5.315,0,0,1,.7,1.324,4.009,4.009,0,0,1-.129,1.15.973.973,0,0,0,.393,1.024,2.38,2.38,0,0,0,.6.14c1.071.238,1.43,1.494,1.592,2.533.364-.021.528-.438.6-.778l1.116-4.961c.121-.538.322-1.161.858-1.349a2.748,2.748,0,0,1,1.127.024c1.473.121,2.72-1.018,4.161-1.332a5.315,5.315,0,0,1,1.4-.092c1.137.056,2.459.523,2.7,1.584.04.172.064.378.225.464s.322.013.5,0c.721-.072,1.146.739,1.354,1.4l.757,2.415c.113.366.3.8.7.842a.73.73,0,0,0,.731-.644,2.821,2.821,0,0,0-.143-1.043c-.356-1.586.188-3.209.52-4.8s.391-3.415-.721-4.639c-.4-.443-.935-.773-1.312-1.24-.351-.438-.549-.976-.913-1.406-1.006-1.187-3.587-2.1-5.17-2.254A10.532,10.532,0,0,0,692.971,299.228Z" transform="translate(-591.323 -265.294)"/><g class="b" transform="translate(95.949 39.756)"><path d="M710.469,355.638c-.4-.048-.586-.483-.7-.842q-.378-1.209-.757-2.415c-.208-.665-.633-1.477-1.354-1.4-.161.018-.351.084-.5,0s-.185-.291-.225-.464c-.242-1.063-1.563-1.528-2.7-1.584a5.383,5.383,0,0,0-1.4.092c-1.449.322-2.687,1.449-4.161,1.332a2.779,2.779,0,0,0-1.127-.023c-.543.187-.737.805-.858,1.349l-1.116,4.959c-.076.341-.24.758-.6.778-.161-1.037-.522-2.293-1.592-2.531a2.532,2.532,0,0,1-.6-.14.7.7,0,0,1-.311-.346c-.029.15-.063.3-.082.449a.977.977,0,0,0,.393,1.024,2.38,2.38,0,0,0,.6.14c1.071.238,1.43,1.494,1.592,2.533.364-.021.528-.438.6-.778l1.116-4.961c.121-.538.322-1.161.858-1.349a2.748,2.748,0,0,1,1.127.024c1.473.121,2.72-1.018,4.161-1.332a5.314,5.314,0,0,1,1.4-.092c1.137.056,2.459.523,2.7,1.584.04.172.064.378.225.464s.322.013.5,0c.721-.072,1.146.739,1.354,1.4q.377,1.209.757,2.415c.113.366.3.8.7.842a.73.73,0,0,0,.731-.644,2.186,2.186,0,0,0-.1-.855A.665.665,0,0,1,710.469,355.638Z" transform="translate(-691.553 -347.886)"/><path d="M688.236,359.68a5.426,5.426,0,0,0-.7-1.324,2.647,2.647,0,0,1-.238-.966c0,.18-.016.361-.018.543a3.508,3.508,0,0,0,.256,1.552c.179.365.473.688.622,1.059a2.426,2.426,0,0,0,.079-.865Z" transform="translate(-687.28 -354.994)"/><path d="M808.33,343.769a14.286,14.286,0,0,0-.609,4.241,27.609,27.609,0,0,1,.609-3.114,8.212,8.212,0,0,0,.187-2.386A9.844,9.844,0,0,1,808.33,343.769Z" transform="translate(-788.307 -342.51)"/></g><path class="e" d="M621.792,540.5c-.195,3.2-2.541,5.84-3.434,8.915a18.6,18.6,0,0,1-.675,2.3,7.265,7.265,0,0,1-3.381,3.3,5.079,5.079,0,0,1-1.665.605,3.191,3.191,0,0,1-3.206-1.705,13.512,13.512,0,0,1-.644-2.415c-.25-.929-.716-1.786-1.021-2.7a9.844,9.844,0,0,1-.161-5.244,16.1,16.1,0,0,1,1.728-4.276c.113-.2.227-.394.345-.589a13.4,13.4,0,0,1,1.116-1.61,17.8,17.8,0,0,1,3.436-2.942.806.806,0,0,1,.322-.161h.019a.777.777,0,0,1,.4.093,31.491,31.491,0,0,1,4.887,2.647c.554.369,1.428.781,1.718,1.409A5.718,5.718,0,0,1,621.792,540.5Z" transform="translate(-524.252 -463.392)"/><path class="h" d="M640.9,477.758a1.665,1.665,0,0,0-.357.572,27.027,27.027,0,0,0-2.27,9.278.928.928,0,0,1-.1.449,1.962,1.962,0,0,1-.237.256.889.889,0,0,0,.151,1.288,1.731,1.731,0,0,1,1.467-.707c2.707-.214,5.35,1.045,8.065.95-.192-.662-.467-1.3-.623-1.968-.691-2.974,1.032-6.212-.024-9.076a2.341,2.341,0,0,0-1.119-1.388,2.98,2.98,0,0,0-.716-.19c-.686-.124-2.051-.654-2.715-.441-.245.079-.341.309-.544.448C641.569,477.427,641.16,477.5,640.9,477.758Z" transform="translate(-549.75 -415.364)"/><path class="g" d="M622.408,553.039a4.748,4.748,0,0,1-4.025,2.336,3.172,3.172,0,0,1-1.288-.237,3.574,3.574,0,0,1-1.826-2.682c-.216-1.1-.148-2.245-.3-3.36-.122-.889-.383-1.752-.518-2.639-.332-2.195.322-4.362.787-6.547.113-.2.227-.394.345-.589a13.4,13.4,0,0,1,1.116-1.61,17.8,17.8,0,0,1,3.436-2.942h-1.288a.221.221,0,0,1,.349.153c.127,1.127,1.716,2.254,2.063,3.349.214.673.472,1.333.644,2.019a16.178,16.178,0,0,1,.309,1.771q.343,2.5.683,4.991C623.178,549.079,623.422,551.271,622.408,553.039Z" transform="translate(-530.151 -464.021)"/><path class="e" d="M615.462,426.027l1.554-4.874a8.461,8.461,0,0,0,.494-2.236,2.866,2.866,0,0,0-.71-2.117,9.215,9.215,0,0,0-1.552-1.018c-1.288-.868-1.932-2.388-2.6-3.787s-1.555-2.863-3.021-3.381c-.338-.119-.805-.129-.956.195a.684.684,0,0,0-.024.422,4.809,4.809,0,0,0,1.138,1.932,4.806,4.806,0,0,1,1.241,3.5c-.222,1.491-1.562,2.647-1.723,4.146a19.158,19.158,0,0,0,.1,1.987,5.547,5.547,0,0,0,.024,1.235,8.324,8.324,0,0,0,.34.915,5.341,5.341,0,0,1,.222,1.483l.34,6.338c.184,3.428-1.676,6.763-1.164,10.144.135.887.4,1.75.518,2.639.161,1.116.085,2.254.3,3.36a3.592,3.592,0,0,0,1.826,2.682,3.172,3.172,0,0,0,1.288.237,4.748,4.748,0,0,0,4.025-2.336c1.014-1.771.77-3.959.493-5.978l-.683-4.991a16.175,16.175,0,0,0-.309-1.771c-.171-.686-.428-1.346-.644-2.019C615.283,430.527,614.767,428.213,615.462,426.027Z" transform="translate(-525.337 -358.15)"/><rect class="j" width="35.906" height="22.864" rx="7.97" transform="translate(96.863 68.255)"/><rect class="k" width="35.906" height="22.864" rx="7.97" transform="translate(96.863 68.255)"/><circle class="l" cx="0.966" cy="0.966" r="0.966" transform="translate(113.77 78.721)"/><path class="j" d="M428.465,611h1.95a4.025,4.025,0,0,1,4.025,4.025V621h-10v-5.975A4.025,4.025,0,0,1,428.465,611Z" transform="translate(-356.097 -512.58)"/><path class="g" d="M428.465,611h1.95a4.025,4.025,0,0,1,4.025,4.025V621h-10v-5.975A4.025,4.025,0,0,1,428.465,611Z" transform="translate(-356.097 -512.58)"/><circle class="j" cx="0.8" cy="0.8" r="0.8" transform="translate(72.145 99.02)"/><circle class="j" cx="0.8" cy="0.8" r="0.8" transform="translate(72.145 98.02)"/><circle class="j" cx="0.8" cy="0.8" r="0.8" transform="translate(72.145 97.02)"/><circle class="j" cx="0.8" cy="0.8" r="0.8" transform="translate(72.145 96.021)"/><circle class="j" cx="0.8" cy="0.8" r="0.8" transform="translate(72.145 95.021)"/><circle class="j" cx="0.8" cy="0.8" r="0.8" transform="translate(72.145 94.021)"/><circle class="j" cx="0.8" cy="0.8" r="0.8" transform="translate(72.145 93.021)"/><circle class="j" cx="0.8" cy="0.8" r="0.8" transform="translate(73.344 93.42)"/><circle class="j" cx="0.8" cy="0.8" r="0.8" transform="translate(74.144 93.021)"/><circle class="j" cx="0.8" cy="0.8" r="0.8" transform="translate(74.945 92.62)"/><circle class="j" cx="0.8" cy="0.8" r="0.8" transform="translate(72.145 92.019)"/><circle class="j" cx="0.8" cy="0.8" r="0.8" transform="translate(72.145 91.019)"/><circle class="j" cx="0.8" cy="0.8" r="0.8" transform="translate(72.145 90.02)"/><circle class="j" cx="0.8" cy="0.8" r="0.8" transform="translate(72.145 89.02)"/><path class="c" d="M530.03,622.751c-.2.029-.4.05-.6.063a4.6,4.6,0,0,0,.515-.528,3.416,3.416,0,0,0-.483-.939,1.646,1.646,0,0,1-.644.2c-.2.029-.4.052-.6.064a10.988,10.988,0,0,0,.765-.805,3.4,3.4,0,1,0,1.125,2.52,3.328,3.328,0,0,0-.052-.584Z" transform="translate(-453.77 -535.512)"/><path class="c" d="M565.006,660.057a1.583,1.583,0,0,1-.673.225c-.2.029-.4.05-.6.063a5.863,5.863,0,0,0,.593-.615,2,2,0,1,0,.678.322Z" transform="translate(-486.071 -568.843)"/><circle class="j" cx="0.8" cy="0.8" r="0.8" transform="translate(70.943 93.42)"/><circle class="j" cx="0.8" cy="0.8" r="0.8" transform="translate(70.143 93.021)"/><circle class="j" cx="0.8" cy="0.8" r="0.8" transform="translate(69.343 92.62)"/><path class="c" d="M502.928,660.057a1.574,1.574,0,0,0,.673.225c.2.029.4.05.6.063a5.7,5.7,0,0,1-.593-.615,2,2,0,1,1-.678.322Z" transform="translate(-435.974 -568.843)"/><path class="j" d="M428.465,614.73h1.95a4.025,4.025,0,0,1,4.025,4.025v5.293a.683.683,0,0,1-.683.683h-8.635a.683.683,0,0,1-.683-.683v-5.293A4.025,4.025,0,0,1,428.465,614.73Z" transform="translate(-356.097 -515.71)"/><g class="b" transform="translate(69.591 84.462)"><path d="M564.038,638.77a3.049,3.049,0,0,1-.258.245,2.622,2.622,0,0,0,.274-.024C564.05,638.917,564.046,638.842,564.038,638.77Z" transform="translate(-557.307 -635.774)"/><path d="M556.32,629.357c.2-.013.4-.034.6-.063a1.933,1.933,0,0,0,.52-.142,3.539,3.539,0,0,0-.28-.462,1.211,1.211,0,0,1-.322.137A4.631,4.631,0,0,1,556.32,629.357Z" transform="translate(-551.048 -627.317)"/><path d="M523.932,623.922a3.394,3.394,0,0,1,5.233-2.86l.052-.055a3.4,3.4,0,1,0-4.479,5.109A3.381,3.381,0,0,1,523.932,623.922Z" transform="translate(-523.58 -620.165)"/></g><g class="b" transform="translate(75.745 90.82)"><path d="M573.72,662.762c.2-.013.4-.034.6-.063a1.563,1.563,0,0,0,.673-.225,2,2,0,0,1,.805,1.417,1.831,1.831,0,0,0,.011-.211,1.993,1.993,0,0,0-.805-1.61,1.582,1.582,0,0,1-.673.225l-.161.019A4.079,4.079,0,0,1,573.72,662.762Z" transform="translate(-571.801 -661.68)"/><path d="M563.8,660.049a1.642,1.642,0,0,1,.2.015c.1-.111.208-.23.312-.346a2,2,0,0,0-2.512,1.932,1.373,1.373,0,0,0,.01.2A2,2,0,0,1,563.8,660.049Z" transform="translate(-561.8 -659.65)"/></g><g class="b" transform="translate(66.137 90.82)"><path d="M504.217,662.762c-.2-.013-.4-.034-.6-.063a1.554,1.554,0,0,1-.673-.225,2,2,0,0,0-.805,1.417,1.824,1.824,0,0,1-.011-.211,1.993,1.993,0,0,1,.805-1.61,1.575,1.575,0,0,0,.673.225l.161.019A3.809,3.809,0,0,0,504.217,662.762Z" transform="translate(-502.13 -661.68)"/><path d="M511.922,660.049a1.669,1.669,0,0,0-.2.015c-.1-.111-.206-.23-.311-.346a2,2,0,0,1,2.512,1.932,1.365,1.365,0,0,1-.01.2A2,2,0,0,0,511.922,660.049Z" transform="translate(-509.916 -659.65)"/></g><rect class="c" width="36.389" height="14.169" transform="translate(25.46 28.966)"/><rect class="m" width="59.736" height="14.169" rx="7.085" transform="translate(25.46 28.966)"/><path class="l" d="M413.5,302.562a2.914,2.914,0,0,0-5.447-.771,2.331,2.331,0,0,0,.253,4.65h5.059a1.95,1.95,0,0,0,1.945-1.953A1.921,1.921,0,0,0,413.5,302.562Zm-2.236,1.148v1.478H410.02V303.71H408.7l1.945-1.947,1.945,1.947Z" transform="translate(-355.315 -267.269)"/></g></svg>